<?xml version="1.0" encoding="utf-8"?>
<svg viewBox="0 0 487.95 318.238" xmlns="http://www.w3.org/2000/svg">
  <defs>
    <clipPath clipPathUnits="userSpaceOnUse" id="clipPath138">
      <path d="m 3667.32,2459.18 c -119.15,126.27 -192.31,296.38 -192.31,483.69 0,389.43 315.7,705.13 705.14,705.13 389.43,0 705.12,-315.7 705.12,-705.13 0,-194.91 -79.08,-371.33 -206.89,-498.96 l 354.79,-346.44 c 217.33,215.86 351.95,514.88 351.95,845.4 0,658.11 -533.51,1191.63 -1191.63,1191.63 -658.13,0 -1191.63,-533.52 -1191.63,-1191.63 0,-324.97 130.23,-619.41 341.16,-834.38 l 324.3,350.69" id="path136"/>
    </clipPath>
    <clipPath clipPathUnits="userSpaceOnUse" id="clipPath148">
      <path d="m 3667.32,2459.18 c -119.15,126.27 -192.31,296.38 -192.31,483.69 0,389.43 315.7,705.13 705.14,705.13 389.43,0 705.12,-315.7 705.12,-705.13 0,-194.91 -79.08,-371.33 -206.89,-498.96 l 354.79,-346.44 c 217.33,215.86 351.95,514.88 351.95,845.4 0,658.11 -533.51,1191.63 -1191.63,1191.63 -658.13,0 -1191.63,-533.52 -1191.63,-1191.63 0,-324.97 130.23,-619.41 341.16,-834.38 l 324.3,350.69" id="path146"/>
    </clipPath>
    <clipPath clipPathUnits="userSpaceOnUse" id="clipPath154">
      <path d="m 5135.19,2212.71 c 3,18.66 6.39,39.96 11.36,66.73 26.16,140.85 -51.89,255.64 -51.89,255.64 l -0.06,-0.16 -206.86,388 -0.05,-0.03 c -0.8,2.77 -1.64,5.54 -2.51,8.29 0.06,3.89 0.09,7.78 0.09,11.69 v 0 0 c 0,2.04 0,4.08 -0.02,6.12 h 499.85 c 0.01,-2.05 0.02,-4.08 0.02,-6.12 0,-275.14 -93.3,-528.47 -249.93,-730.16 m -369.95,146.38 -86.86,84.82 c 76.61,76.5 135.7,170.51 170.76,275.54 l 83.99,-207.04 -48.69,-113.31 c -33.94,-6.84 -67.18,-17.05 -99.09,-30.49 -6.82,-2.88 -13.63,-5.93 -20.11,-9.52" id="path152"/>
    </clipPath>
    <clipPath clipPathUnits="userSpaceOnUse" id="clipPath164">
      <path d="m 3667.32,2459.18 c -119.15,126.27 -192.31,296.38 -192.31,483.69 0,389.43 315.7,705.13 705.14,705.13 389.43,0 705.12,-315.7 705.12,-705.13 0,-194.91 -79.08,-371.33 -206.89,-498.96 l 354.79,-346.44 c 217.33,215.86 351.95,514.88 351.95,845.4 0,658.11 -533.51,1191.63 -1191.63,1191.63 -658.13,0 -1191.63,-533.52 -1191.63,-1191.63 0,-324.97 130.23,-619.41 341.16,-834.38 l 324.3,350.69" id="path162"/>
    </clipPath>
  </defs>
  <g id="g10" transform="matrix(0.751812, 0, 0, -0.751812, 0, 318.237518)" style="">
    <g id="g12" transform="scale(0.1)">
      <path d="m 6408.04,1376.22 c 0,0 -65.19,28.17 -111.44,-123.98 -46.25,-152.14 -58.86,-237.38 -58.86,-237.38 0,0 -13.58,-32.571 -37.06,-17.04 -23.47,15.53 -60.62,64.82 -93,48.99 -33.59,-16.43 -38.21,-57.99 -21.13,-114.83 17.08,-56.839 49.94,-182.73 52.87,-194.128 2.88,-11.18 -0.64,-29.043 -18.33,-21.032 -17.69,8.008 -126.33,92.852 -163.5,38.879 -37.17,-53.961 36.43,-204.48 44.17,-221.09 7.73,-16.597 5.64,-24.66 -1.87,-30.449 -7.51,-5.781 -41.34,26.172 -73.23,49.031 -31.89,22.86 -72.88,43.778 -91.71,10.84 -18.84,-32.929 -5.3,-153.293 142.37,-326.402 l 73.67,-75.738 103.3,24.371 c 217.87,65.609 294.4,159.488 296.39,197.367 2,37.891 -43.78,42.492 -82.97,40.531 -39.19,-1.949 -84.95,-10.512 -88.13,-1.57 -3.18,8.93 -0.58,16.82 14.92,26.609 15.49,9.77 158.86,96.481 156.83,161.973 -2.04,65.5 -139.32,52.988 -158.53,55.828 -19.21,2.828 -12.5,19.762 -4.02,27.609 8.62,7.993 104.4,96.051 149.53,134.602 45.14,38.527 63.75,75.98 44.41,107.98 -18.67,30.848 -76.58,9.508 -104.72,9.161 -28.16,-0.352 -21.94,34.386 -21.94,34.386 0,0 35.54,78.502 79.02,231.462 43.48,152.96 -28.4,164.5 -28.4,164.5" style="fill:#e7e8e5;fill-opacity:1;fill-rule:nonzero;stroke:none" id="path14"/>
      <path d="m 6366.39,1240.04 c 0,0 -0.2,-1.13 -0.74,-3.26 -0.6,-2.28 -1.43,-5.42 -2.5,-9.46 -2.33,-8.44 -5.68,-20.64 -9.98,-36.26 -8.7,-31.47 -21.63,-76.93 -37.82,-133.03 C 6283.01,945.809 6237.01,791.172 6185.64,620.559 6134.25,449.891 6087.86,295.371 6054.89,183.352 6038.5,127.43 6025.21,82.1406 6015.98,50.6406 c -4.58,-15.5312 -8.16,-27.6523 -10.63,-36.0586 -1.22,-4 -2.17,-7.10153 -2.85,-9.36325 -0.66,-2.09766 -1.09,-3.14844 -1.09,-3.14844 0,0 0.19,1.1211 0.73,3.25 0.6,2.28907 1.43,5.41799 2.51,9.44919 2.32,8.461 5.67,20.6524 9.97,36.2618 8.7,31.4804 21.62,76.9297 37.81,133.0277 32.35,112.222 78.35,266.882 129.75,437.543 51.37,170.617 97.75,325.117 130.72,437.148 16.4,55.91 29.68,101.21 38.92,132.7 4.58,15.54 8.14,27.66 10.62,36.08 1.22,3.99 2.17,7.1 2.85,9.35 0.67,2.1 1.1,3.16 1.1,3.16" style="fill:#dadbd8;fill-opacity:1;fill-rule:nonzero;stroke:none" id="path16"/>
      <path d="m 6156.87,975.75 c 0.22,0.121 1.61,-2.23 3.93,-6.551 2.35,-4.328 5.54,-10.679 9.41,-18.558 7.7,-15.782 17.76,-37.852 28.4,-62.422 10.36,-24.199 19.72,-46.078 26.97,-63.008 3.23,-7.473 5.98,-13.82 8.25,-19.039 1.96,-4.492 2.94,-7.043 2.71,-7.152 -0.21,-0.122 -1.63,2.218 -3.98,6.539 -2.33,4.32 -5.53,10.671 -9.32,18.601 -7.55,15.86 -17.31,38.059 -27.95,62.621 -10.52,24.11 -20.04,45.91 -27.4,62.789 -3.28,7.461 -6.06,13.801 -8.36,19.008 -1.93,4.512 -2.89,7.063 -2.66,7.172" style="fill:#dadbd8;fill-opacity:1;fill-rule:nonzero;stroke:none" id="path18"/>
      <path d="m 6246.43,798.879 c -0.44,0.891 44.14,23.672 99.56,50.859 55.44,27.203 100.72,48.524 101.16,47.621 0.44,-0.898 -44.13,-23.668 -99.57,-50.871 -55.41,-27.187 -100.7,-48.508 -101.15,-47.609" style="fill:#dadbd8;fill-opacity:1;fill-rule:nonzero;stroke:none" id="path20"/>
      <path d="m 6155.71,540.391 c -0.04,0.238 2.68,0.871 7.6,1.789 5.7,1 12.68,2.23 20.88,3.691 17.63,3.129 41.94,7.539 68.6,13.367 26.68,5.762 50.65,11.793 67.97,16.301 8.08,2.082 14.93,3.832 20.54,5.281 4.86,1.219 7.58,1.782 7.66,1.539 0.06,-0.238 -2.52,-1.257 -7.26,-2.89 -4.75,-1.629 -11.65,-3.86 -20.24,-6.41 -17.19,-5.129 -41.14,-11.59 -67.89,-17.368 -26.75,-5.839 -51.23,-9.859 -68.98,-12.351 -8.89,-1.211 -16.08,-2.102 -21.08,-2.559 -4.99,-0.492 -7.77,-0.64 -7.8,-0.39" style="fill:#dadbd8;fill-opacity:1;fill-rule:nonzero;stroke:none" id="path22"/>
      <path d="m 6039.48,682.551 c 0.2,0.148 2.02,-1.653 5.17,-5.063 3.13,-3.398 7.59,-8.406 13.04,-14.636 10.88,-12.473 25.74,-29.852 41.97,-49.192 16.23,-19.351 30.77,-37 41.16,-49.879 5.2,-6.453 9.35,-11.699 12.16,-15.383 2.81,-3.687 4.27,-5.796 4.08,-5.957 -0.19,-0.171 -2.02,1.641 -5.16,5.047 -3.14,3.41 -7.59,8.41 -13.04,14.641 -10.89,12.473 -25.74,29.851 -41.97,49.199 -16.24,19.344 -30.78,36.992 -41.17,49.871 -5.19,6.442 -9.34,11.699 -12.15,15.391 -2.82,3.68 -4.27,5.789 -4.09,5.961" style="fill:#dadbd8;fill-opacity:1;fill-rule:nonzero;stroke:none" id="path24"/>
      <path d="m 5930.4,464.52 c 0.2,0.171 2.51,-2.168 6.52,-6.532 4.45,-4.957 10.07,-11.226 16.77,-18.718 14.04,-15.899 33.24,-38.04 54.29,-62.629 21.04,-24.602 39.94,-47 53.49,-63.332 6.35,-7.778 11.68,-14.309 15.88,-19.457 3.7,-4.641 5.65,-7.301 5.45,-7.461 -0.18,-0.161 -2.5,2.179 -6.51,6.55 -4.44,4.95 -10.07,11.219 -16.77,18.707 -14.04,15.903 -33.25,38.043 -54.29,62.641 -21.04,24.59 -39.94,46.992 -53.48,63.32 -6.36,7.782 -11.68,14.301 -15.89,19.461 -3.69,4.649 -5.64,7.289 -5.46,7.45" style="fill:#dadbd8;fill-opacity:1;fill-rule:nonzero;stroke:none" id="path26"/>
      <path d="m 6080.36,291.68 c -0.04,0.242 3.37,1.121 9.58,2.492 6.89,1.469 15.71,3.359 26.3,5.617 22.21,4.77 52.86,11.441 86.49,19.742 33.65,8.25 63.91,16.5 85.79,22.617 10.43,2.903 19.13,5.313 25.91,7.192 6.14,1.672 9.56,2.48 9.63,2.25 0.08,-0.238 -3.21,-1.5 -9.22,-3.59 -6,-2.078 -14.74,-4.949 -25.6,-8.309 -21.72,-6.742 -51.93,-15.402 -85.65,-23.679 -33.7,-8.321 -64.49,-14.614 -86.84,-18.731 -11.19,-2.031 -20.27,-3.582 -26.55,-4.5 -6.29,-0.949 -9.79,-1.351 -9.84,-1.101" style="fill:#dadbd8;fill-opacity:1;fill-rule:nonzero;stroke:none" id="path28"/>
      <path d="M 3371.43,377.422 H 2070.39 V 977.441 H 3371.43 V 377.422" style="fill:#f3f2f1;fill-opacity:1;fill-rule:nonzero;stroke:none" id="path30"/>
      <path d="m 2108.26,413.789 h 1224.1 V 937.77 h -1224.1 z m 1232.2,-8.09 H 2100.17 V 945.871 H 3340.46 V 405.699" style="fill:#dadbd8;fill-opacity:1;fill-rule:nonzero;stroke:none" id="path32"/>
      <path d="m 3689.26,377.422 h -317.83 v 600.019 h 317.83 V 377.422" style="fill:#dadbd8;fill-opacity:1;fill-rule:nonzero;stroke:none" id="path34"/>
      <path d="m 2104.21,778.699 c 139.38,0 278.76,0 418.14,0 220.21,0 440.42,0 660.64,0 51.14,0 102.27,0 153.42,0 2.1,0 2.11,3.262 0,3.262 -139.38,0 -278.76,0 -418.14,0 -220.21,0 -440.42,0 -660.63,0 -51.15,0 -102.28,0 -153.43,0 -2.1,0 -2.1,-3.262 0,-3.262" style="fill:#dadbd8;fill-opacity:1;fill-rule:nonzero;stroke:none" id="path36"/>
      <path d="m 2724.34,780.332 c 3.69,53.258 3.29,109.68 0.42,162.988 -0.12,2.129 -3.21,2.141 -3.32,0 -2.87,-53.308 -3.28,-109.73 0.42,-162.988 0.11,-1.594 2.36,-1.594 2.48,0" style="fill:#dadbd8;fill-opacity:1;fill-rule:nonzero;stroke:none" id="path38"/>
      <path d="m 3056,861.82 c 0,-9.261 -7.51,-16.781 -16.79,-16.781 -9.27,0 -16.78,7.52 -16.78,16.781 0,9.27 7.51,16.789 16.78,16.789 9.28,0 16.79,-7.519 16.79,-16.789" style="fill:#dadbd8;fill-opacity:1;fill-rule:nonzero;stroke:none" id="path40"/>
      <path d="m 2409.34,861.82 c 0,-9.261 -7.51,-16.781 -16.78,-16.781 -9.27,0 -16.79,7.52 -16.79,16.781 0,9.27 7.52,16.789 16.79,16.789 9.27,0 16.78,-7.519 16.78,-16.789" style="fill:#dadbd8;fill-opacity:1;fill-rule:nonzero;stroke:none" id="path42"/>
      <path d="m 2737.1,675.781 c 0,-9.269 -7.52,-16.793 -16.79,-16.793 -9.27,0 -16.78,7.524 -16.78,16.793 0,9.278 7.51,16.789 16.78,16.789 9.27,0 16.79,-7.511 16.79,-16.789" style="fill:#dadbd8;fill-opacity:1;fill-rule:nonzero;stroke:none" id="path44"/>
      <path d="M 2225.94,377.422 2158.96,0.710938 h 37.68 L 2320.14,377.422 h -94.2" style="fill:#dadbd8;fill-opacity:1;fill-rule:nonzero;stroke:none" id="path46"/>
      <path d="M 3279.38,377.422 3335.39,0.0585938 h -37.67 L 3185.18,377.422 h 94.2" style="fill:#dadbd8;fill-opacity:1;fill-rule:nonzero;stroke:none" id="path48"/>
      <path d="M 3530.89,377.422 3594.36,0.0585938 h -37.69 L 3436.69,377.422 h 94.2" style="fill:#dadbd8;fill-opacity:1;fill-rule:nonzero;stroke:none" id="path50"/>
      <path d="m 2735.97,505.969 c 0,-9.27 -7.51,-16.789 -16.78,-16.789 -9.28,0 -16.79,7.519 -16.79,16.789 0,9.269 7.51,16.781 16.79,16.781 9.27,0 16.78,-7.512 16.78,-16.781" style="fill:#dadbd8;fill-opacity:1;fill-rule:nonzero;stroke:none" id="path52"/>
      <path d="m 2104.21,592.891 c 139.38,0 278.76,0 418.14,0 220.21,0 440.42,0 660.64,0 51.14,0 102.27,0 153.42,0 2.1,0 2.11,3.269 0,3.269 -139.38,0 -278.76,0 -418.14,0 -220.21,0 -440.42,0 -660.63,0 -51.15,0 -102.28,0 -153.43,0 -2.1,0 -2.1,-3.269 0,-3.269" style="fill:#dadbd8;fill-opacity:1;fill-rule:nonzero;stroke:none" id="path54"/>
      <path d="m 5290.19,2793.84 h 822.559 V 3897.08 H 5290.19 Z" style="fill:#e7e8e5;fill-opacity:1;fill-rule:nonzero;stroke:none" id="path56"/>
      <path d="m 5333.01,2837.2 h 736.918 V 3853.72 H 5333.01 Z" style="fill:#fafaf9;fill-opacity:1;fill-rule:nonzero;stroke:none" id="path58"/>
      <path d="m 5853.15,3180.62 h -281.34 v 321.48 h 281.34 v -321.48" style="fill:#e7e8e5;fill-opacity:1;fill-rule:nonzero;stroke:none" id="path60"/>
      <path d="M 6470.98,2532.29 V 1998.1 h -716.46 v 534.19 h 716.46" style="fill:#e7e8e5;fill-opacity:1;fill-rule:nonzero;stroke:none" id="path62"/>
      <path d="m 6442.82,2504.48 v -478.57 h -660.14 v 478.57 h 660.14" style="fill:#fafaf9;fill-opacity:1;fill-rule:nonzero;stroke:none" id="path64"/>
      <path d="m 6219.81,2363.7 v -182.71 h -208.78 v 182.71 h 208.78" style="fill:#e7e8e5;fill-opacity:1;fill-rule:nonzero;stroke:none" id="path66"/>
      <path d="M 542.242,2771.04 H 20.332 v 700 h 521.91 v -700" style="fill:#e7e8e5;fill-opacity:1;fill-rule:nonzero;stroke:none" id="path68"/>
      <path d="M 515.074,2798.55 H 47.4961 v 644.98 H 515.074 v -644.98" style="fill:#fafaf9;fill-opacity:1;fill-rule:nonzero;stroke:none" id="path70"/>
      <path d="M 377.523,3016.45 H 199.02 v 203.97 h 178.503 v -203.97" style="fill:#e7e8e5;fill-opacity:1;fill-rule:nonzero;stroke:none" id="path72"/>
      <path d="m 2925.27,1318.39 -35.58,-330.12 h 455.79 l 37.8,330.12 h -458.01" style="fill:#e7e8e5;fill-opacity:1;fill-rule:nonzero;stroke:none" id="path74"/>
      <path d="m 2944,1294.68 -34.6,-288.87 h 411.34 l 33.28,288.87 H 2944" style="fill:#fafaf9;fill-opacity:1;fill-rule:nonzero;stroke:none" id="path76"/>
      <path d="m 3013.23,1246.09 -21.3,-191.7 h 259.58 l 13.32,191.7 h -251.6" style="fill:#dadbd8;fill-opacity:1;fill-rule:nonzero;stroke:none" id="path78"/>
      <path d="m 3367,1176.22 94.14,-189.279 -115.66,1.329 22.94,200.3" style="fill:#f3f2f1;fill-opacity:1;fill-rule:nonzero;stroke:none" id="path80"/>
      <path d="M 6292.61,2.60156 C 6292.61,1.16016 4883.85,0 3146.46,0 1408.46,0 0,1.16016 0,2.60156 c 0,1.4375 1408.46,2.59766 3146.46,2.59766 1737.39,0 3146.15,-1.16016 3146.15,-2.59766" style="fill:#17282f;fill-opacity:1;fill-rule:nonzero;stroke:none" id="path82"/>
      <path d="m 822.984,1494.34 h 3762.69 V 3971.06 H 822.984 Z" style="fill:#e7e8e5;fill-opacity:1;fill-rule:nonzero;stroke:none" id="path84"/>
      <path d="m 4585.67,1494.34 c -0.02,16.91 -0.81,965.98 -2.08,2476.72 l 2.08,-2.07 c -1033.26,-0.14 -2342.48,-0.33 -3762.389,-0.53 h -0.297 l 2.602,2.6 C 825.512,3090 825.441,2251.65 825.371,1494.34 l -2.387,2.39 c 2214.766,-1.41 3741.276,-2.38 3762.686,-2.39 -21.39,-0.01 -1547.92,-0.98 -3762.686,-2.39 h -2.386 v 2.39 c -0.071,757.31 -0.145,1595.66 -0.215,2476.72 v 2.6 h 2.601 0.297 c 1419.909,-0.2 2729.129,-0.38 3762.389,-0.53 h 2.07 v -2.07 c -1.27,-1510.74 -2.06,-2459.82 -2.07,-2476.72" style="fill:#17282f;fill-opacity:1;fill-rule:nonzero;stroke:none" id="path86"/>
      <path d="m 4585.67,3750.69 c 0,-1.44 -842.37,-2.6 -1881.25,-2.6 -1039.24,0 -1881.436,1.16 -1881.436,2.6 0,1.43 842.196,2.6 1881.436,2.6 1038.88,0 1881.25,-1.17 1881.25,-2.6" style="fill:#17282f;fill-opacity:1;fill-rule:nonzero;stroke:none" id="path88"/>
      <path d="m 1173.56,2952.58 h 3154.37 v 431.684 H 1173.56 Z" style="fill:#dadbd8;fill-opacity:1;fill-rule:nonzero;stroke:none" id="path90"/>
      <path d="m 1819.91,1497.29 h -700.3 v 700.3 h 700.3 v -700.3" style="fill:#dadbd8;fill-opacity:1;fill-rule:nonzero;stroke:none" id="path92"/>
      <path d="m 2647.74,1497.29 h -700.29 v 700.3 h 700.29 v -700.3" style="fill:#dadbd8;fill-opacity:1;fill-rule:nonzero;stroke:none" id="path94"/>
      <path d="m 3450.85,1497.29 h -700.3 v 700.3 h 700.3 v -700.3" style="fill:#dadbd8;fill-opacity:1;fill-rule:nonzero;stroke:none" id="path96"/>
      <path d="m 2371.84,2494.35 h -759.11 c -63.89,0 -115.68,51.8 -115.68,115.69 0,63.89 51.79,115.69 115.68,115.69 h 759.11 c 63.89,0 115.69,-51.8 115.69,-115.69 0,-63.89 -51.8,-115.69 -115.69,-115.69" style="fill:#35b977;fill-opacity:1;fill-rule:nonzero;stroke:none" id="path98"/>
      <path d="m 3259.21,2494.35 c 0,0 3.51,0.36 10.34,0.79 3.41,0.27 7.59,1.17 12.59,1.91 4.87,1.36 10.69,2.45 16.85,5.03 12.43,4.65 27.2,12.75 41.13,26.39 13.63,13.75 26.14,33.42 31.36,58.21 4.82,24.58 2.25,54.29 -13.42,80.84 -15.29,26.23 -43.63,49.15 -79.13,54.93 -17.54,2.89 -36.43,1.37 -55.68,1.71 -19.29,-0.03 -39.19,-0.06 -59.67,-0.09 -40.96,-0.06 -84.25,-0.12 -129.71,-0.18 -363.8,-0.2 -866.18,-0.47 -1421.04,-0.77 -34.01,0.07 -67.27,-16.01 -88.19,-42.26 -21.1,-26.11 -29.45,-61.5 -22.63,-93.9 6.73,-32.43 28.3,-60.92 56.94,-76.44 14.34,-7.69 30.26,-12.21 46.35,-13.22 16.15,-0.76 32.84,-0.22 49.11,-0.39 130.85,-0.06 257.07,-0.1 377.3,-0.15 240.45,-0.21 456.99,-0.4 638.87,-0.57 181.78,-0.34 328.89,-0.63 430.7,-0.82 50.77,-0.22 90.21,-0.38 117.1,-0.49 13.3,-0.11 23.47,-0.2 30.45,-0.26 6.86,-0.09 10.38,-0.27 10.38,-0.27 0,0 -3.52,-0.17 -10.38,-0.26 -6.98,-0.06 -17.15,-0.15 -30.45,-0.26 -26.89,-0.11 -66.33,-0.28 -117.1,-0.49 -101.81,-0.19 -248.92,-0.48 -430.7,-0.83 -181.88,-0.15 -398.42,-0.34 -638.87,-0.55 -120.23,-0.05 -246.45,-0.1 -377.3,-0.15 -16.43,0.16 -32.63,-0.41 -49.44,0.37 -16.82,1.06 -33.49,5.77 -48.48,13.81 -29.94,16.21 -52.51,45.99 -59.55,79.92 -7.15,33.86 1.58,70.9 23.66,98.21 21.84,27.46 56.68,44.3 92.23,44.21 554.86,-0.3 1057.24,-0.57 1421.04,-0.76 45.46,-0.07 88.75,-0.13 129.71,-0.19 20.48,-0.03 40.38,-0.07 59.67,-0.1 19.26,-0.43 38,1.07 56.17,-1.96 36.4,-6.07 65.3,-29.68 80.79,-56.55 15.87,-27.21 18.33,-57.53 13.26,-82.5 -5.47,-25.2 -18.33,-45.08 -32.27,-58.9 -14.22,-13.71 -29.25,-21.74 -41.84,-26.27 -6.25,-2.52 -12.13,-3.54 -17.06,-4.83 -5.05,-0.66 -9.27,-1.48 -12.71,-1.66 -6.87,-0.26 -10.38,-0.26 -10.38,-0.26" style="fill:#17282f;fill-opacity:1;fill-rule:nonzero;stroke:none" id="path100"/>
      <path d="m 2246.45,2413.51 h 8.63 l -10.62,-52.95 h 32.82 l -1.47,-7.51 h -41.45 l 12.09,60.46" style="fill:#17282f;fill-opacity:1;fill-rule:nonzero;stroke:none" id="path102"/>
      <path d="m 2323.7,2379.13 c 0,8.12 -4.92,12.88 -13.65,12.88 -10.27,0 -17.87,-8.04 -17.87,-19.35 0,-8.04 4.92,-12.87 13.64,-12.87 10.37,0 17.88,8.03 17.88,19.34 z m -39.9,-6.82 c 0,15.46 11.23,26.94 26.86,26.94 13.04,0 21.42,-7.68 21.42,-19.69 0,-15.54 -11.14,-27.03 -26.78,-27.03 -13.03,0 -21.5,7.86 -21.5,19.78" style="fill:#17282f;fill-opacity:1;fill-rule:nonzero;stroke:none" id="path104"/>
      <path d="m 2378.49,2379.13 c 0,8.12 -4.92,12.88 -13.65,12.88 -10.27,0 -17.87,-8.04 -17.87,-19.35 0,-8.04 4.92,-12.87 13.64,-12.87 10.37,0 17.88,8.03 17.88,19.34 z m 12.35,19.69 -9.07,-45.77 h -7.94 l 1.12,5.62 c -4.06,-3.89 -9.59,-6.14 -16.15,-6.14 -11.66,0 -20.21,7.43 -20.21,19.78 0,15.72 11.05,26.94 25.91,26.94 7.86,0 13.56,-2.84 16.5,-8.2 l 1.55,7.77 h 8.29" style="fill:#17282f;fill-opacity:1;fill-rule:nonzero;stroke:none" id="path106"/>
      <path d="m 2437.34,2379.13 c 0,8.12 -4.92,12.88 -13.65,12.88 -10.28,0 -17.87,-8.04 -17.87,-19.35 0,-8.04 4.92,-12.87 13.64,-12.87 10.36,0 17.88,8.03 17.88,19.34 z m 16.06,38 -12.78,-64.08 h -7.94 l 1.12,5.62 c -4.06,-3.89 -9.59,-6.14 -16.15,-6.14 -11.66,0 -20.21,7.43 -20.21,19.78 0,15.72 11.05,26.94 25.91,26.94 7.86,0 13.64,-2.84 16.58,-8.29 l 5.18,26.17 h 8.29" style="fill:#17282f;fill-opacity:1;fill-rule:nonzero;stroke:none" id="path108"/>
      <path d="m 2466.83,2412.64 c 0,3.19 2.41,5.79 5.95,5.79 3.03,0 5.27,-2.25 5.27,-4.84 0,-3.54 -2.5,-5.96 -6.04,-5.96 -3.03,0 -5.18,2.25 -5.18,5.01 z m -1.39,-13.82 h 8.3 l -9.07,-45.77 h -8.29 l 9.06,45.77" style="fill:#17282f;fill-opacity:1;fill-rule:nonzero;stroke:none" id="path110"/>
      <path d="m 2529.5,2384.06 c 0,-1.64 -0.17,-3.46 -0.52,-5.36 l -5.09,-25.65 h -8.29 l 5.09,25.65 c 0.26,1.38 0.44,2.68 0.44,3.8 0,5.96 -3.46,9.33 -10.63,9.33 -8.89,0 -14.94,-4.76 -16.93,-14.6 l -4.83,-24.18 h -8.29 l 9.07,45.77 h 7.94 l -1.12,-5.87 c 4.23,4.32 10.02,6.3 16.58,6.3 10.37,0 16.58,-5.44 16.58,-15.19" style="fill:#17282f;fill-opacity:1;fill-rule:nonzero;stroke:none" id="path112"/>
      <path d="m 2579.63,2380.17 c 0,7.34 -5.01,11.84 -13.65,11.84 -10.45,0 -17.96,-7.52 -17.96,-17.89 0,-7.43 5.09,-11.92 13.64,-11.92 10.45,0 17.97,7.52 17.97,17.97 z m 12.69,18.65 -7.86,-39.55 c -3.28,-16.58 -12.17,-23.5 -27.37,-23.5 -8.73,0 -15.98,2.34 -20.9,6.49 l 4.57,6.39 c 3.54,-3.29 9.76,-5.53 16.93,-5.53 10.8,0 16.24,4.92 18.22,14.85 l 0.69,3.28 c -4.14,-3.97 -9.75,-6.3 -16.58,-6.3 -12.09,0 -20.38,7.08 -20.38,18.66 0,14.51 10.8,25.64 26.08,25.64 7.52,0 14.08,-2.76 17.1,-8.81 l 1.64,8.38 h 7.86" style="fill:#17282f;fill-opacity:1;fill-rule:nonzero;stroke:none" id="path114"/>
      <path d="m 2619.37,2358.06 c 0,3.71 2.76,6.31 6.13,6.31 3.11,0 5.44,-2.34 5.44,-5.62 0,-3.72 -2.84,-6.22 -6.04,-6.22 -3.11,0 -5.53,2.42 -5.53,5.53" style="fill:#17282f;fill-opacity:1;fill-rule:nonzero;stroke:none" id="path116"/>
      <path d="m 2638.96,2358.06 c 0,3.71 2.76,6.31 6.13,6.31 3.11,0 5.44,-2.34 5.44,-5.62 0,-3.72 -2.85,-6.22 -6.05,-6.22 -3.11,0 -5.52,2.42 -5.52,5.53" style="fill:#17282f;fill-opacity:1;fill-rule:nonzero;stroke:none" id="path118"/>
      <path d="m 2658.54,2358.06 c 0,3.71 2.76,6.31 6.13,6.31 3.11,0 5.44,-2.34 5.44,-5.62 0,-3.72 -2.84,-6.22 -6.04,-6.22 -3.11,0 -5.53,2.42 -5.53,5.53" style="fill:#17282f;fill-opacity:1;fill-rule:nonzero;stroke:none" id="path120"/>
      <path d="m 966.719,3850.2 c 0,-15.23 -12.348,-27.57 -27.578,-27.57 -15.231,0 -27.578,12.34 -27.578,27.57 0,15.23 12.347,27.58 27.578,27.58 15.23,0 27.578,-12.35 27.578,-27.58" style="fill:#17282f;fill-opacity:1;fill-rule:nonzero;stroke:none" id="path122"/>
      <path d="m 1083.93,3850.2 c 0,-15.23 -12.35,-27.57 -27.58,-27.57 -15.23,0 -27.58,12.34 -27.58,27.57 0,15.23 12.35,27.58 27.58,27.58 15.23,0 27.58,-12.35 27.58,-27.58" style="fill:#17282f;fill-opacity:1;fill-rule:nonzero;stroke:none" id="path124"/>
      <path d="m 1201.14,3850.2 c 0,-15.23 -12.35,-27.57 -27.58,-27.57 -15.23,0 -27.58,12.34 -27.58,27.57 0,15.23 12.35,27.58 27.58,27.58 15.23,0 27.58,-12.35 27.58,-27.58" style="fill:#17282f;fill-opacity:1;fill-rule:nonzero;stroke:none" id="path126"/>
      <path d="m 5506.73,2917.61 c 0,-725.29 -587.96,-1313.25 -1313.24,-1313.25 -725.29,0 -1313.25,587.96 -1313.25,1313.25 0,725.28 587.96,1313.24 1313.25,1313.24 725.28,0 1313.24,-587.96 1313.24,-1313.24" style="fill:#f3f2f1;fill-opacity:1;fill-rule:nonzero;stroke:none" id="path128"/>
      <path d="m 5506.73,2917.61 c 0,0 -0.36,7.21 -0.8,21.29 -0.22,7.06 -0.48,15.81 -0.79,26.22 -0.26,10.43 -0.54,22.54 -1.87,36.22 -1.08,13.69 -2.29,29.01 -3.62,45.9 -1.72,16.86 -4.42,35.21 -6.9,55.14 -5.59,39.76 -14.26,85.32 -26.68,135.98 -13.37,50.37 -29.62,106.18 -53.8,164.89 -23.71,58.8 -52.91,121.52 -91.34,184.89 -75.91,126.85 -184.83,259.62 -333.27,372.84 -73.91,56.77 -157.94,107.71 -250.55,149.79 -92.55,42.04 -193.69,75.8 -301.57,95.25 -107.68,19.89 -221.67,27.73 -338.09,18.67 -58.28,-3.46 -116.87,-12.92 -175.7,-24.56 -58.7,-12.55 -117.25,-29.37 -175.28,-49.97 -57.64,-21.66 -115.01,-46.36 -170.57,-76.27 -55.33,-30.21 -109.71,-63.83 -161.5,-102.26 -51.59,-38.67 -101.12,-81.16 -147.92,-127.4 -46.23,-46.83 -89.59,-97.3 -129.5,-151.13 -40.09,-53.72 -75.19,-111.75 -106.88,-172.04 -7.53,-15.27 -16.05,-30.11 -22.82,-45.83 -7.05,-15.59 -14.11,-31.2 -21.18,-46.85 -12.65,-31.93 -25.73,-63.84 -36.16,-96.86 -21.5,-65.71 -39.28,-133.38 -49.93,-202.77 -10.94,-69.31 -16.68,-139.87 -17.16,-210.94 0.48,-71.1 6.17,-141.68 17.1,-211.02 10.66,-69.42 28.41,-137.11 49.9,-202.85 l 8.31,-24.57 4.15,-12.26 4.74,-12.04 c 6.33,-16.04 12.65,-32.05 18.95,-48.03 7.08,-15.65 14.14,-31.27 21.18,-46.86 6.76,-15.73 15.3,-30.57 22.83,-45.85 31.68,-60.3 66.78,-118.36 106.88,-172.08 39.91,-53.85 83.28,-104.35 129.51,-151.19 46.81,-46.25 96.35,-88.76 147.95,-127.44 51.8,-38.43 106.18,-72.06 161.52,-102.28 55.57,-29.92 112.95,-54.62 170.6,-76.28 58.04,-20.61 116.6,-37.43 175.3,-49.98 58.84,-11.63 117.44,-21.11 175.73,-24.55 116.43,-9.07 230.43,-1.21 338.12,18.69 107.88,19.44 209.03,53.22 301.58,95.26 92.6,42.09 176.64,93.05 250.53,149.82 148.44,113.24 257.34,246 333.24,372.85 38.42,63.37 67.63,126.08 91.32,184.88 24.17,58.71 40.43,114.51 53.78,164.87 12.43,50.65 21.1,96.21 26.68,135.96 2.48,19.93 5.19,38.28 6.9,55.14 1.34,16.89 2.54,32.2 3.62,45.9 1.33,13.68 1.61,25.78 1.87,36.21 0.31,10.41 0.57,19.16 0.79,26.21 0.44,14.07 0.8,21.29 0.8,21.29 0,0 0,-7.22 -0.27,-21.3 -0.14,-7.06 -0.33,-15.81 -0.53,-26.23 -0.17,-10.44 -0.36,-22.55 -1.61,-36.25 -1.01,-13.71 -2.13,-29.05 -3.37,-45.96 -1.63,-16.89 -4.27,-35.26 -6.66,-55.22 -5.43,-39.82 -13.96,-85.47 -26.25,-136.24 -13.23,-50.48 -29.37,-106.43 -53.45,-165.3 -23.59,-58.97 -52.73,-121.87 -91.11,-185.45 -75.83,-127.27 -184.8,-260.55 -333.51,-374.29 -74.04,-57.03 -158.25,-108.23 -251.1,-150.54 -92.79,-42.27 -194.24,-76.25 -302.46,-95.86 -108.03,-20.06 -222.41,-28.02 -339.24,-19 -58.5,3.41 -117.32,12.88 -176.37,24.52 -58.92,12.56 -117.7,29.41 -175.98,50.05 -57.86,21.71 -115.46,46.48 -171.26,76.48 -55.56,30.31 -110.15,64.05 -162.17,102.61 -51.81,38.81 -101.55,81.45 -148.56,127.87 -46.42,47 -89.97,97.67 -130.05,151.72 -40.27,53.93 -75.52,112.21 -107.34,172.74 -7.56,15.34 -16.13,30.24 -22.92,46.02 -7.08,15.66 -14.17,31.34 -21.28,47.05 -6.33,16.04 -12.68,32.11 -19.03,48.21 l -4.76,12.09 -4.17,12.31 -8.34,24.66 c -21.59,66 -39.41,133.97 -50.12,203.65 -10.98,69.62 -16.7,140.48 -17.18,211.86 0.49,71.34 6.25,142.18 17.23,211.77 10.7,69.67 28.56,137.61 50.15,203.58 10.48,33.15 23.61,65.19 36.32,97.24 7.1,15.71 14.19,31.38 21.27,47.03 6.8,15.78 15.35,30.67 22.93,46.01 31.81,60.51 67.07,118.76 107.33,172.68 40.07,54.03 83.62,104.68 130.04,151.67 47,46.41 96.73,89.05 148.53,127.84 52.01,38.55 106.59,72.27 162.14,102.58 55.8,29.99 113.39,54.76 171.24,76.46 58.28,20.65 117.04,37.5 175.96,50.06 59.05,11.64 117.85,21.1 176.34,24.52 116.83,9.02 231.19,1.06 339.21,-18.99 108.22,-19.6 209.66,-53.57 302.45,-95.83 92.85,-42.31 177.07,-93.5 251.11,-150.52 148.72,-113.73 257.7,-247 333.54,-374.28 38.39,-63.58 67.54,-126.49 91.14,-185.46 24.09,-58.87 40.23,-114.83 53.46,-165.31 12.29,-50.78 20.82,-96.43 26.26,-136.26 2.39,-19.97 5.02,-38.34 6.66,-55.23 1.24,-16.92 2.36,-32.26 3.37,-45.97 1.25,-13.7 1.44,-25.81 1.61,-36.25 0.2,-10.42 0.39,-19.18 0.53,-26.24 0.27,-14.09 0.27,-21.3 0.27,-21.3" style="fill:#17282f;fill-opacity:1;fill-rule:nonzero;stroke:none" id="path130"/>
      <g id="g132">
        <g id="g134" clip-path="url(#clipPath138)">
          <path d="m 3667.32,2459.18 c -119.15,126.27 -192.31,296.38 -192.31,483.69 0,389.43 315.7,705.13 705.14,705.13 389.43,0 705.12,-315.7 705.12,-705.13 0,-194.91 -79.08,-371.33 -206.89,-498.96 l 354.79,-346.44 c 217.33,215.86 351.95,514.88 351.95,845.4 0,658.11 -533.51,1191.63 -1191.63,1191.63 -658.13,0 -1191.63,-533.52 -1191.63,-1191.63 0,-324.97 130.23,-619.41 341.16,-834.38 l 324.3,350.69" style="fill:#35b977;fill-opacity:1;fill-rule:nonzero;stroke:none" id="path140"/>
        </g>
      </g>
      <g id="g142">
        <g id="g144" clip-path="url(#clipPath148)">
          <g id="g150" clip-path="url(#clipPath154)">
            <path d="m 4678.38,2212.71 h 706.742 v 736.277 H 4678.38 Z" style="fill:#34473E;fill-opacity:1;fill-rule:nonzero;stroke:none" id="path156"/>
          </g>
        </g>
      </g>
      <g id="g158">
        <g id="g160" clip-path="url(#clipPath164)">
          <path d="m 4885.25,2948.99 c -1.58,185.36 -74.69,353.67 -193.06,478.66 l 354.1,347.51 c 208.31,-213.42 337.19,-504.73 338.81,-826.14 l -499.85,-0.03" style="fill:#416D57;fill-opacity:1;fill-rule:nonzero;stroke:none" id="path166"/>
          <path d="m 4690.94,3428.97 c -120.3,126.37 -286.99,208.16 -472.79,218.02 -0.03,5.1 -0.06,10.36 -0.08,15.72 l 3.04,471.47 c 322.64,-7.34 613.59,-142.88 823.91,-357.72 l -354.08,-347.49" style="fill:#438665;fill-opacity:1;fill-rule:nonzero;stroke:none" id="path168"/>
          <path d="m 3657.36,3416.07 c -90.79,96.83 -253.96,270.45 -328.25,347.07 217.13,228.72 524.11,371.36 864.38,371.36 9.16,0 18.26,-0.11 27.37,-0.31 -1.11,-100.1 -3.39,-329.32 -2.79,-471.48 l -0.1,-15.73 c -12.53,0.68 -25.13,1.02 -37.82,1.02 -207.34,0 -393.76,-89.47 -522.79,-231.93" style="fill:#379466;fill-opacity:1;fill-rule:nonzero;stroke:none" id="path170"/>
          <path d="m 4218.07,3662.71 c -0.6,142.16 1.68,371.38 2.79,471.48 0.08,-0.01 0.17,-0.01 0.25,-0.01 l -3.04,-471.47" style="fill:#52101c;fill-opacity:1;fill-rule:nonzero;stroke:none" id="path172"/>
          <path d="m 3148.74,2946.11 c -60.51,0 -112.72,0.23 -146.88,0.84 1.07,316.16 125.26,603.34 327.12,816.05 l 327.74,-347.65 c -112,-123.99 -180.56,-287.93 -181.7,-467.9 -101.9,-0.69 -225.58,-1.34 -326.28,-1.34" style="fill:#37A870;fill-opacity:1;fill-rule:nonzero;stroke:none" id="path174"/>
        </g>
      </g>
      <path d="m 4480.48,2917.61 c 0,-151.12 -122.51,-273.63 -273.62,-273.63 -151.13,0 -273.64,122.51 -273.64,273.63 0,151.12 122.51,273.62 273.64,273.62 151.11,0 273.62,-122.5 273.62,-273.62" style="fill:#dadbd8;fill-opacity:1;fill-rule:nonzero;stroke:none" id="path176"/>
      <path d="m 4126.26,2899.34 v 0 c 11.96,-40.96 54.74,-64.61 95.78,-52.95 l 951.53,270.08 -982.03,-118.22 c -47.63,-5.73 -78.73,-52.86 -65.28,-98.91" style="fill:#33535f;fill-opacity:1;fill-rule:nonzero;stroke:none" id="path178"/>
      <path d="m 4060.75,2325.81 -52.35,-265.54 h -69.42 l 27.32,139.97 -88.39,-113.8 h -33 l -48.17,113.8 -28.08,-139.97 h -69.03 l 53.1,265.54 h 61.07 l 62.22,-153.63 120.62,153.63 h 64.11" style="fill:#17282f;fill-opacity:1;fill-rule:nonzero;stroke:none" id="path180"/>
      <path d="m 4225.74,2172.18 c 0,23.89 -14.41,39.45 -39.07,39.45 -28.45,0 -48.94,-23.15 -48.94,-57.67 0,-23.89 14.42,-39.06 39.08,-39.06 28.83,0 48.93,23.14 48.93,57.28 z m 90.67,93.69 -40.98,-205.6 h -68.28 l 4.18,19.35 c -15.94,-14.8 -35.67,-22.77 -59.56,-22.77 -44.38,0 -86.87,33.77 -86.87,93.71 0,68.28 50.07,118.73 111.53,118.73 27.69,0 50.07,-8.35 62.97,-28.08 l 4.93,24.66 h 72.08" style="fill:#17282f;fill-opacity:1;fill-rule:nonzero;stroke:none" id="path182"/>
      <path d="m 4476.47,2162.31 55.76,-102.04 h -76.62 l -28.08,53.87 -49.69,-53.87 h -81.56 l 102.8,105.46 -54.25,100.14 h 75.49 l 27.32,-52.35 48.93,52.35 h 79.28 l -99.38,-103.56" style="fill:#17282f;fill-opacity:1;fill-rule:nonzero;stroke:none" id="path184"/>
      <path d="m 4551.18,2096.31 c 0,27.69 20.87,45.9 46.28,45.9 24.28,0 40.59,-15.93 40.59,-39.46 0,-27.68 -21.24,-45.9 -45.9,-45.9 -23.9,0 -40.97,16.7 -40.97,39.46" style="fill:#17282f;fill-opacity:1;fill-rule:nonzero;stroke:none" id="path186"/>
      <path d="m 4074.53,1861.69 h 82.89 l -4.02,-20.61 h -119.12 l 3.32,16.11 80.75,64.64 c 22.26,18 28.89,28.9 28.89,42.4 0,14.44 -10.19,23.91 -32.44,23.91 -16.11,0 -31.73,-6.63 -42.87,-18.46 l -15.86,13.73 c 13.74,15.4 36.47,25.34 62.04,25.34 33.63,0 52.81,-17.05 52.81,-41.45 0,-19.18 -8.28,-35.76 -36.7,-58.25 l -59.69,-47.36" style="fill:#17282f;fill-opacity:1;fill-rule:nonzero;stroke:none" id="path188"/>
      <path d="m 4235.85,1986.25 -13.73,-45.47 h 16.1 c 42.39,0 61.58,-17.52 61.58,-44.28 0,-34.34 -28.19,-57.31 -70.58,-57.31 -25.1,0 -46.42,7.81 -58.02,20.84 l 12.55,18.23 c 9,-10.42 26.06,-18 47.13,-18 28.65,0 45.23,12.55 45.23,33.63 0,16.34 -11.84,26.28 -42.15,26.28 h -40.26 l 25.81,86.68 h 93.55 l -4.04,-20.6 h -73.17" style="fill:#17282f;fill-opacity:1;fill-rule:nonzero;stroke:none" id="path190"/>
      <path d="m 4439.07,1947.41 c 0,26.29 -12.78,40.26 -34.1,40.26 -37.41,0 -58.25,-48.55 -58.25,-87.14 0,-26.29 12.78,-40.27 34.34,-40.27 37.17,0 58.01,48.55 58.01,87.15 z m -116.03,-47.36 c 0,57.55 32.44,108.7 83.83,108.7 34.81,0 55.88,-22.5 55.88,-60.86 0,-57.55 -32.67,-108.7 -83.59,-108.7 -35.05,0 -56.12,22.5 -56.12,60.86" style="fill:#17282f;fill-opacity:1;fill-rule:nonzero;stroke:none" id="path192"/>
      <path d="m 5625.68,210.031 42.49,-68.672 108.29,125.063 -57.03,60.418 -93.75,-116.809" style="fill:#35b977;fill-opacity:1;fill-rule:nonzero;stroke:none" id="path194"/>
      <path d="m 5766.85,279.23 c 0.52,-0.46 -4.97,-7.878 -14.56,-19.289 -9.58,-11.41 -23.33,-26.722 -38.8,-43.32 -14.89,-15.73 -28.36,-29.98 -39.92,-42.211 -10.31,-10.711 -16.81,-17.23 -17.38,-16.738 -0.52,0.449 5,7.848 14.62,19.226 9.61,11.383 23.36,26.68 38.84,43.293 14.86,15.75 28.32,29.989 39.87,42.231 10.29,10.738 16.76,17.289 17.33,16.808" style="fill:#17282f;fill-opacity:1;fill-rule:nonzero;stroke:none" id="path196"/>
      <path d="m 5667.24,272.738 c 1.02,1.043 12.92,-9.097 26.57,-22.617 13.65,-13.531 23.89,-25.332 22.87,-26.359 -1.01,-1.032 -12.91,9.097 -26.56,22.636 -13.65,13.524 -23.9,25.321 -22.88,26.34" style="fill:#17282f;fill-opacity:1;fill-rule:nonzero;stroke:none" id="path198"/>
      <path d="m 5668.17,141.359 -1.4,1.231 -11.55,13.941 1.01,1.117 c 0.01,-0.007 0.03,-0.007 0.04,-0.007 0.2,0 0.65,0.289 1.31,0.828 l 10.59,-17.11 108.29,125.063 -108.29,-125.063 m 108.29,125.063 -10.42,11.039 v 0 l 10.42,-11.039" style="fill:#ffffff;fill-opacity:1;fill-rule:nonzero;stroke:none" id="path200"/>
      <path d="m 5668.17,141.359 -10.59,17.11 c 2.5,2.062 8.14,7.781 15.99,15.941 11.56,12.231 25.03,26.481 39.92,42.211 15.47,16.598 29.22,31.91 38.8,43.32 7.05,8.391 11.89,14.629 13.75,17.52 l 10.42,-11.039 -108.29,-125.063" style="fill:#66FFB3;fill-opacity:1;fill-rule:nonzero;stroke:none" id="path202"/>
      <path d="m 5656.27,157.641 c -0.01,0 -0.03,0 -0.04,0.007 l 60.13,66.051 c 0.04,-0.008 0.07,-0.008 0.11,-0.008 0.09,0 0.16,0.02 0.21,0.071 0.07,0.066 0.09,0.187 0.06,0.347 l 48.93,53.75 0.37,-0.398 v 0 c -1.86,-2.891 -6.7,-9.129 -13.75,-17.52 -9.58,-11.41 -23.33,-26.722 -38.8,-43.32 -14.89,-15.73 -28.36,-29.98 -39.92,-42.211 -7.85,-8.16 -13.49,-13.879 -15.99,-15.941 -0.66,-0.539 -1.11,-0.828 -1.31,-0.828" style="fill:#9ba6a6;fill-opacity:1;fill-rule:nonzero;stroke:none" id="path204"/>
      <path d="m 5716.47,223.691 c -0.04,0 -0.07,0 -0.11,0.008 l 0.38,0.41 c 0.03,-0.16 0.01,-0.281 -0.06,-0.347 -0.05,-0.051 -0.12,-0.071 -0.21,-0.071" style="fill:#9ba6a6;fill-opacity:1;fill-rule:nonzero;stroke:none" id="path206"/>
      <path d="m 4772.05,46.1406 0.28,16.8789 170.9,-1.3281 -0.3,-55.64062 -10.56,-0.5625 c -46.97,-2.15625 -238.96,-7.87891 -270.26,1.14063 -34.9,10.08199 109.94,39.51169 109.94,39.51169" style="fill:#35b977;fill-opacity:1;fill-rule:nonzero;stroke:none" id="path208"/>
      <path d="m 4943.18,52.2617 v 0 0.269531 0 z" style="fill:#ffffff;fill-opacity:1;fill-rule:nonzero;stroke:none" id="path210"/>
      <path d="m 4942.77,8.32031 -0.08,1.26953 -61.05,-0.16796 c 2.89,12.51952 10.71,24.02732 21.66,31.82812 10.24,7.2891 22.53,11.4609 35.27,11.4609 1.53,0 3.07,-0.0625 4.61,-0.1796 v -0.2696 l -0.41,-43.94139" style="fill:#66FFB3;fill-opacity:1;fill-rule:nonzero;stroke:none" id="path212"/>
      <path d="m 4922.63,4.75 c -2.76,0 -5.51,0 -8.29,0.01172 7.25,0.25781 13.36,0.50781 18.03,0.72656 l 10.56,0.5625 C 4936.7,5.58203 4929.9,5.14844 4922.63,4.75" style="fill:#ffffff;fill-opacity:1;fill-rule:nonzero;stroke:none" id="path214"/>
      <path d="m 4790.92,1.75 c -3.67,0 -7.31,0.01172 -10.93,0.01953 49.72,0.33203 102.8,1.82031 134.35,2.99219 2.78,-0.01172 5.53,-0.01172 8.29,-0.01172 -37,-2.00781 -85.92,-3 -131.71,-3" style="fill:#9ba6a6;fill-opacity:1;fill-rule:nonzero;stroke:none" id="path216"/>
      <path d="m 4663.52,6.26172 c -3.85,0.62891 -6.21,1.31641 -6.81,2.07031 -0.87,1.07813 -0.64,2.25777 0.4,3.49997 -1.23,-2.02341 0.14,-3.80075 5,-5.20309 0.44,-0.12891 0.91,-0.25 1.41,-0.36719 M 4690.18,26.25 c 5.04,1.5313 9.04,2.6211 10.49,3.0117 -3.59,-1 -7.11,-2 -10.49,-3.0117" style="fill:#ffffff;fill-opacity:1;fill-rule:nonzero;stroke:none" id="path218"/>
      <path d="m 4779.99,1.76953 c -52.59,0.19141 -99.33,1.69922 -116.47,4.49219 -0.5,0.11719 -0.97,0.23828 -1.41,0.36719 -4.86,1.40234 -6.23,3.17968 -5,5.20309 4.17,4.9883 21.4,10.8789 33.07,14.418 3.38,1.0117 6.9,2.0117 10.49,3.0117 0.39,0.0977 0.59,0.1485 0.59,0.1485 9.9,-0.4414 14.84,-20.44926 14.84,-20.44926 l 165.54,0.46094 c -0.14,-0.59375 -0.27,-1.1836 -0.38,-1.77344 l 61.51,0.67187 0.16,-2.26953 -10.56,-0.5625 C 4927.7,5.26953 4921.59,5.01953 4914.34,4.76172 4882.79,3.58984 4829.71,2.10156 4779.99,1.76953" style="fill:#66FFB3;fill-opacity:1;fill-rule:nonzero;stroke:none" id="path220"/>
      <path d="m 4881.26,7.64844 c 0.11,0.58984 0.24,1.17969 0.38,1.77344 l 61.05,0.16796 0.08,-1.26953 -61.51,-0.67187" style="fill:#fcd5df;fill-opacity:1;fill-rule:nonzero;stroke:none" id="path222"/>
      <path d="m 4945.36,9.67969 c 0,-0.07031 -1,-0.16016 -2.93,-0.28906 -2.52,-0.1211 -5.28,-0.26172 -8.4,-0.42188 -8.4,-0.29687 -18.74,-0.64844 -30.93,-1.07812 C 4876.97,7.16016 4840.87,6.58203 4801,6.75 c -39.9,0.17969 -75.99,1.08203 -102.1,2.05078 -12.18,0.53125 -22.51,0.98047 -30.91,1.34762 -3.12,0.1914 -5.87,0.3633 -8.39,0.5118 -1.92,0.1289 -2.93,0.2382 -2.92,0.3086 0,0.0625 1.01,0.082 2.93,0.0703 2.53,-0.0391 5.29,-0.0782 8.42,-0.1289 8.4,-0.211 18.73,-0.461 30.93,-0.7618 26.11,-0.61715 62.18,-1.29684 102.05,-1.47652 39.85,-0.1836 75.93,0.1875 102.06,0.57812 12.19,0.17969 22.54,0.33984 30.93,0.46875 3.13,0.01953 5.89,0.04297 8.42,0.0625 1.93,-0.01172 2.94,-0.04297 2.94,-0.10156" style="fill:#17282f;fill-opacity:1;fill-rule:nonzero;stroke:none" id="path224"/>
      <path d="m 4716.13,6.51172 c -0.63,-0.07031 -1.05,6.79688 -5.65,13.74998 -4.46,7.0274 -10.79,10.5781 -10.43,11.0664 0.13,0.4727 7.38,-2.5468 12.2,-10.0664 4.91,-7.4726 4.39,-14.87107 3.88,-14.74998" style="fill:#17282f;fill-opacity:1;fill-rule:nonzero;stroke:none" id="path226"/>
      <path d="m 4766.54,29.9297 c -0.47,-0.2813 -2.85,2.4492 -5.3,6.0898 -2.45,3.6602 -4.04,6.8399 -3.55,7.1211 0.47,0.2891 2.85,-2.4492 5.3,-6.1015 2.45,-3.6407 4.04,-6.8282 3.55,-7.1094" style="fill:#17282f;fill-opacity:1;fill-rule:nonzero;stroke:none" id="path228"/>
      <path d="m 4780.38,36.6289 c -0.38,-0.3906 -3.05,1.293 -5.96,3.75 -2.91,2.4609 -4.95,4.7695 -4.57,5.1797 0.38,0.3906 3.06,-1.2891 5.96,-3.7578 2.91,-2.4688 4.96,-4.7813 4.57,-5.1719" style="fill:#17282f;fill-opacity:1;fill-rule:nonzero;stroke:none" id="path230"/>
      <path d="m 4789.23,51.5117 c 0,-0.5312 -3.98,-0.9726 -8.89,-1 -4.9,-0.0234 -8.88,0.3789 -8.88,0.9102 0,0.5273 3.97,0.9765 8.88,1 4.91,0.0273 8.89,-0.3828 8.89,-0.9102" style="fill:#17282f;fill-opacity:1;fill-rule:nonzero;stroke:none" id="path232"/>
      <path d="m 4792.32,62.0313 c 0.19,-0.4805 -4.16,-2.2813 -9.93,-2.6329 -5.77,-0.3867 -10.33,0.8204 -10.21,1.3204 0.1,0.5507 4.59,0.2226 10.08,0.5898 5.47,0.3398 9.88,1.25 10.06,0.7227" style="fill:#17282f;fill-opacity:1;fill-rule:nonzero;stroke:none" id="path234"/>
      <path d="m 4760.91,43.7617 c 0.01,-0.2226 -4.19,-0.6797 -10.94,0.1172 -3.36,0.4024 -7.33,1.1602 -11.61,2.4492 -2.13,0.711 -4.35,1.25 -6.64,2.5821 -1.07,0.6796 -2.27,1.6289 -2.68,3.1718 -0.44,1.5196 0.46,3.2266 1.69,4.0469 10.5,4.9805 20.92,-0.5391 24.75,-5.5703 2.11,-2.5703 3.07,-5.0781 3.5,-6.7969 0.42,-1.75 0.39,-2.7422 0.26,-2.7617 -0.39,-0.1211 -0.7,4.0195 -4.9,8.7109 -2.07,2.2891 -5.22,4.5391 -9.28,5.6797 -3.86,1.0782 -9.35,1.4102 -13.05,-0.75 -1.74,-1.1914 -1.08,-3.0898 0.84,-4.1718 1.79,-1.0899 4.11,-1.7579 6.13,-2.4688 4.12,-1.3516 7.96,-2.2305 11.23,-2.7891 6.53,-1.1093 10.7,-1.1406 10.7,-1.4492" style="fill:#17282f;fill-opacity:1;fill-rule:nonzero;stroke:none" id="path236"/>
      <path d="m 4758.07,43.2695 c -0.16,-0.1211 -1.75,2.4922 -1.19,7.0625 0.28,2.2461 1.19,4.8985 3.05,7.4102 1.95,2.2461 4.46,5.3398 9.14,5.1367 2.54,-0.3203 3.75,-3.0078 3.33,-4.7187 -0.21,-1.7696 -1.09,-3.3008 -1.9,-4.5313 -1.64,-2.5273 -3.51,-4.5703 -5.22,-6.1172 -3.45,-3.1015 -6.17,-4.2734 -6.3,-4.082 -0.18,0.25 2.2,1.8125 5.25,5.0195 1.51,1.6016 3.16,3.6328 4.63,6.0703 1.52,2.1407 2.59,6 -0.15,6.461 -2.73,0.2695 -5.56,-2.25 -7.24,-4.2696 -1.74,-2.1914 -2.72,-4.5507 -3.16,-6.5898 -0.87,-4.1406 0.13,-6.7813 -0.24,-6.8516" style="fill:#17282f;fill-opacity:1;fill-rule:nonzero;stroke:none" id="path238"/>
      <path d="m 4942.3,52.9688 c -0.05,-0.3477 -4.88,0.4609 -12.57,-0.3399 -7.63,-0.7578 -18.25,-3.5976 -27.52,-10.3672 -9.27,-6.7812 -14.77,-15.7109 -17.35,-22.4297 -2.66,-6.7734 -2.96,-11.32028 -3.34,-11.28122 -0.12,0.00781 -0.17,1.16016 0.03,3.19922 0.2,2.0508 0.75,5 1.93,8.5195 2.3,7 7.79,16.4219 17.46,23.5 9.67,7.0625 20.8,9.7891 28.66,10.1993 3.96,0.25 7.17,0.0429 9.36,-0.2579 2.17,-0.3007 3.36,-0.6289 3.34,-0.7421" style="fill:#17282f;fill-opacity:1;fill-rule:nonzero;stroke:none" id="path240"/>
      <path d="m 4859.99,23.1797 c 0.07,-0.5 -11.03,-2.1289 -24.85,-2.1602 -13.83,-0.0586 -24.93,1.4922 -24.87,1.9922 0.06,0.5391 11.17,-0.1406 24.87,-0.0703 13.69,0.0274 24.79,0.7969 24.85,0.2383" style="fill:#17282f;fill-opacity:1;fill-rule:nonzero;stroke:none" id="path242"/>
      <path d="m 4893.33,23.0586 c 0.42,-0.3984 -0.93,-2.1797 -2.08,-4.5586 -1.19,-2.3398 -1.8,-4.4492 -2.38,-4.418 -0.55,0.0078 -0.85,2.5078 0.51,5.2266 1.34,2.7305 3.59,4.1406 3.95,3.75" style="fill:#17282f;fill-opacity:1;fill-rule:nonzero;stroke:none" id="path244"/>
      <path d="m 4906.04,37.5391 c 0.4,-0.3789 -0.72,-2.0196 -2.49,-3.668 -1.77,-1.6523 -3.54,-2.6914 -3.94,-2.3125 -0.4,0.3711 0.7,2.0117 2.48,3.6602 1.78,1.6523 3.55,2.6914 3.95,2.3203" style="fill:#17282f;fill-opacity:1;fill-rule:nonzero;stroke:none" id="path246"/>
      <path d="m 4924.08,44.082 c -0.12,-0.5429 -2.39,-0.5 -4.89,-1.3125 -2.53,-0.75 -4.32,-2.0312 -4.77,-1.6679 -0.44,0.289 1,2.539 4.13,3.4882 3.1,0.9688 5.71,-0.0195 5.53,-0.5078" style="fill:#17282f;fill-opacity:1;fill-rule:nonzero;stroke:none" id="path248"/>
      <path d="m 4936.9,47.1602 c 0.21,-0.5 -0.78,-1.3086 -2.19,-1.8086 -1.42,-0.5118 -2.73,-0.5118 -2.93,-0.0118 -0.2,0.4922 0.78,1.3008 2.2,1.8008 1.41,0.5 2.73,0.5 2.92,0.0196" style="fill:#17282f;fill-opacity:1;fill-rule:nonzero;stroke:none" id="path250"/>
      <path d="m 4701.85,2267.2 -263.97,267.43 33.53,348.28 6.04,6.92 c 3.27,3.81 6.99,7.98 11.35,12.55 5.04,5.27 10.98,9.64 17.47,12.99 7.89,4.06 18.57,9.04 25.24,9.99 8.26,1.19 10.99,11.61 4.39,15.11 -6.59,3.48 -29.41,0.78 -52.18,-13.6 -22.77,-14.38 -8.96,25.17 -4.19,39.66 4.78,14.49 17.43,59.98 14.1,64.86 -4.88,7.15 -13.66,3.16 -18.09,-11.43 -4.48,-14.75 -20.81,-57.43 -28.4,-54.74 -7.47,2.65 17.84,76.13 17.84,76.13 0,0 7.97,14.89 -0.68,18.29 -15.62,6.13 -36.73,-73.81 -38.56,-81.46 -1.26,-5.33 -9.62,-2.7 -7.95,2.95 1.71,5.81 26.97,72.75 11.14,79.14 -12.16,4.9 -18,-65.61 -31,-76.8 -13,-11.18 9.94,53.15 -1.87,57.36 -4.4,1.57 -7.92,2.13 -15.72,-36.57 -3.79,-18.78 -12.03,-50.11 -15.08,-80.75 l -0.05,0.01 -82.98,-416.14 259.75,-343.9 159.87,103.72" style="fill:#f8a58d;fill-opacity:1;fill-rule:nonzero;stroke:none" id="path252"/>
      <path d="m 4836.38,3032.82 c -10.86,-6.26 23.22,-65.45 8.43,-56.78 -14.8,8.68 -33.17,77.01 -44.25,70.01 -14.43,-9.12 22.4,-70.46 25.12,-75.87 2.66,-5.25 -5.09,-9.34 -7.29,-4.32 -3.16,7.2 -38.25,82.07 -52.51,73.24 -7.91,-4.89 2.6,-18.12 2.6,-18.12 0,0 38.05,-67.76 31.18,-71.7 -6.98,-4.01 -30.69,35.06 -37.75,48.77 -6.96,13.56 -16.32,15.92 -19.84,8 -2.4,-5.39 18.19,-47.88 25.49,-61.28 7.28,-13.4 27.96,-49.83 2.98,-39.77 -24.98,10.07 -47.91,8.64 -53.77,4.03 -5.87,-4.62 -1.31,-14.39 7.02,-14.07 6.73,0.26 18.13,-2.73 26.62,-5.31 6.99,-2.13 13.61,-5.36 19.51,-9.66 5.11,-3.71 9.51,-7.15 13.42,-10.31 l 7.19,-5.73 142.6,-351.54 -129.56,-301.53 200.8,-74.75 90.25,398.75 -206.88,388.04 -0.05,-0.03 c -8.49,29.61 -22.21,58.96 -29.3,76.76 -14.61,36.68 -17.96,35.49 -22.01,33.17" style="fill:#f8a58d;fill-opacity:1;fill-rule:nonzero;stroke:none" id="path254"/>
      <path d="m 5284.31,896.469 -130.44,671.001 -184.17,-15.83 0.02,1.54 -336.45,-30.46 c 0,0 -15.75,-770.618 -21.34,-770.618 l 92.15,-702.4809 0.01,-0.1406 265.63,12.1211 -102.67,699.2774 37.88,561.161 c 0,0 3.01,4.09 7.57,10.28 l 153.71,-573.699 523.3,-592.242 170.48,164.859 -475.68,565.231" style="fill:#33535f;fill-opacity:1;fill-rule:nonzero;stroke:none" id="path256"/>
      <path d="m 4874.21,866.922 c -0.18,0.008 -0.23,1.976 -0.15,5.738 0.16,4.328 0.36,9.75 0.6,16.399 0.79,14.953 1.85,35.363 3.16,60.261 3.22,51.5 7.57,121.42 12.39,198.69 4.89,70.12 9.35,134.21 12.76,183.17 l 0.05,0.64 0.4,0.48 c 19.06,22.66 34.72,41.25 46.09,54.77 5.24,6.03 9.47,10.93 12.81,14.76 2.97,3.34 4.61,5.03 4.77,4.92 0.15,-0.13 -1.2,-2.07 -3.9,-5.64 -3.1,-4.01 -7.08,-9.13 -11.98,-15.44 -11.04,-13.79 -26.24,-32.75 -44.75,-55.87 l 0.44,1.13 c -3.07,-49 -7.09,-113.11 -11.5,-183.27 -5.4,-77.22 -10.3,-147.1 -13.91,-198.578 -1.98,-24.852 -3.61,-45.23 -4.81,-60.152 -0.63,-6.629 -1.15,-12.032 -1.56,-16.328 -0.42,-3.743 -0.72,-5.704 -0.91,-5.68" style="fill:#17282f;fill-opacity:1;fill-rule:nonzero;stroke:none" id="path258"/>
      <path d="m 4969.72,1553.18 c 1.44,0 2.6,-28.73 2.6,-64.17 0,-35.45 -1.16,-64.17 -2.6,-64.17 -1.44,0 -2.6,28.72 -2.6,64.17 0,35.44 1.16,64.17 2.6,64.17" style="fill:#17282f;fill-opacity:1;fill-rule:nonzero;stroke:none" id="path260"/>
      <path d="m 4742.87,1494.84 c -0.18,0.17 2.71,0.63 8.3,1.35 6.41,0.77 14.57,1.75 24.54,2.95 21.26,2.46 51.97,5.89 88.81,9.62 l 2.5,0.25 0.01,-2.54 c 0.09,-31.54 0.2,-67.9 0.31,-106.53 v -1.61 l -1.45,-0.72 -1.91,-0.95 c -22.43,-11.03 -44.01,-21.63 -64.22,-31.57 l -1.2,-0.59 -1.15,0.67 c -20.15,11.95 -38.85,23.03 -55.59,32.95 l -1.07,0.64 0.02,1.18 c 0.44,28.49 0.81,52.19 1.08,69.72 0.22,7.59 0.4,13.84 0.54,18.86 0.17,4.28 0.33,6.47 0.48,6.32 0.16,-0.14 0.31,-2.61 0.48,-7.11 0.15,-5.13 0.33,-11.53 0.55,-19.31 0.27,-17.22 0.63,-40.5 1.07,-68.48 l -1.03,1.82 c 16.85,-9.74 35.68,-20.6 55.97,-32.31 l -2.34,0.08 c 20.17,10.01 41.72,20.69 64.11,31.81 l 1.9,0.93 -1.45,-2.33 c 0.12,38.63 0.22,74.99 0.31,106.53 l 2.51,-2.28 c -35.93,-3.22 -66.15,-5.61 -87.63,-7.23 -10.22,-0.72 -18.58,-1.32 -25.13,-1.79 -5.89,-0.37 -9.13,-0.49 -9.32,-0.33" style="fill:#17282f;fill-opacity:1;fill-rule:nonzero;stroke:none" id="path262"/>
      <path d="m 5001.9,1520.39 c -0.19,0.17 2.7,0.62 8.3,1.35 6.39,0.77 14.56,1.75 24.53,2.96 21.26,2.45 51.96,5.87 88.81,9.61 l 2.51,0.25 0.01,-2.54 c 0.08,-31.54 0.19,-67.9 0.3,-106.53 l 0.01,-1.61 -1.46,-0.73 -1.9,-0.93 c -22.43,-11.03 -44.02,-21.65 -64.23,-31.58 l -1.21,-0.59 -1.14,0.67 c -20.16,11.94 -38.85,23.03 -55.6,32.96 l -1.05,0.63 0.02,1.18 c 0.43,28.48 0.8,52.19 1.07,69.71 0.21,7.61 0.39,13.86 0.54,18.88 0.16,4.27 0.32,6.46 0.49,6.31 0.15,-0.15 0.31,-2.61 0.47,-7.11 0.15,-5.14 0.33,-11.53 0.54,-19.31 0.27,-17.21 0.65,-40.5 1.08,-68.48 l -1.04,1.81 c 16.86,-9.72 35.68,-20.59 55.99,-32.3 l -2.36,0.08 c 20.19,10.01 41.73,20.7 64.11,31.8 l 1.91,0.94 -1.45,-2.33 c 0.11,38.63 0.22,74.99 0.32,106.53 l 2.51,-2.29 c -35.93,-3.21 -66.17,-5.6 -87.64,-7.22 -10.22,-0.72 -18.58,-1.32 -25.14,-1.79 -5.88,-0.37 -9.13,-0.5 -9.3,-0.33" style="fill:#17282f;fill-opacity:1;fill-rule:nonzero;stroke:none" id="path264"/>
      <path d="m 4867.13,1480.18 c 0.06,-1.43 -27.71,-3.88 -62.01,-5.46 -34.32,-1.59 -62.19,-1.71 -62.25,-0.28 -0.07,1.44 27.69,3.89 62.01,5.48 34.31,1.58 62.18,1.7 62.25,0.26" style="fill:#17282f;fill-opacity:1;fill-rule:nonzero;stroke:none" id="path266"/>
      <path d="m 5123.76,1503.8 c 0.14,-1.44 -27.07,-4.67 -60.76,-7.23 -33.7,-2.56 -61.07,-3.47 -61.12,-2.03 -0.07,1.43 27.13,4.67 60.76,7.23 33.61,2.54 60.98,3.45 61.12,2.03" style="fill:#17282f;fill-opacity:1;fill-rule:nonzero;stroke:none" id="path268"/>
      <path d="m 4846.02,766.891 c 0.17,-1.43 -26.73,-5.903 -60.09,-9.981 -33.37,-4.078 -60.55,-6.238 -60.72,-4.808 -0.18,1.418 26.72,5.898 60.08,9.98 33.36,4.078 60.55,6.238 60.73,4.809" style="fill:#17282f;fill-opacity:1;fill-rule:nonzero;stroke:none" id="path270"/>
      <path d="m 5267.45,882.031 c 0.53,-1.5 -28.72,-11.73 -61.82,-30.32 -33.22,-18.422 -57.27,-37.949 -58.28,-36.711 -0.43,0.512 5.05,6.059 14.87,13.941 9.79,7.879 24.08,17.918 40.87,27.321 16.79,9.347 32.84,16.238 44.69,20.437 11.86,4.223 19.47,5.961 19.67,5.332" style="fill:#17282f;fill-opacity:1;fill-rule:nonzero;stroke:none" id="path272"/>
      <path d="m 4701.85,3205.38 c -0.08,-0.03 -0.76,1.22 -1.98,3.7 -1.3,2.7 -3.06,6.36 -5.32,11.03 -2.38,4.82 -5.01,10.95 -8.64,17.92 -3.79,6.94 -8.14,14.9 -13.01,23.83 -5.01,8.89 -11.33,18.34 -17.81,28.93 -6.93,10.29 -14.76,21.29 -23.39,32.92 -17.73,22.93 -39.59,47.75 -66.1,72.8 -53.39,49.29 -127.16,99.05 -219.41,127.74 -45.94,14.21 -96.17,23.35 -148.59,24.09 -52.37,0.98 -106.73,-5.28 -160.51,-19.29 -53.64,-14.59 -103.94,-36.19 -148.89,-63.1 -45.12,-26.72 -84.16,-59.64 -116.95,-94.82 -65.77,-70.77 -105.02,-150.65 -126.83,-219.96 -10.53,-34.92 -17.14,-67.32 -21.13,-96.03 -1.7,-14.38 -3.03,-27.82 -3.9,-40.2 -0.37,-12.41 -1.15,-23.75 -1.08,-33.95 0.22,-10.17 0.41,-19.23 0.57,-27.14 0.31,-7.85 1.08,-14.47 1.42,-19.84 0.37,-5.17 0.66,-9.22 0.87,-12.21 0.17,-2.76 0.21,-4.18 0.12,-4.19 -0.09,-0.01 -0.3,1.38 -0.64,4.12 -0.35,2.99 -0.81,7.03 -1.39,12.18 -0.51,5.37 -1.45,11.99 -1.93,19.86 -0.3,7.92 -0.65,17.01 -1.04,27.2 -0.22,10.25 0.4,21.64 0.61,34.11 0.75,12.44 1.94,25.96 3.5,40.43 3.73,28.89 10.12,61.53 20.51,96.74 21.49,69.89 60.66,150.55 126.82,222.14 32.98,35.59 72.34,68.9 117.84,95.93 45.32,27.21 96.06,49.05 150.18,63.77 54.25,14.13 109.11,20.41 161.97,19.35 52.89,-0.82 103.59,-10.15 149.9,-24.61 92.99,-29.2 167.09,-79.69 220.5,-129.63 26.52,-25.38 48.3,-50.51 65.9,-73.73 8.57,-11.77 16.31,-22.91 23.15,-33.33 6.4,-10.71 12.6,-20.28 17.5,-29.28 4.73,-9.05 8.94,-17.11 12.63,-24.14 3.49,-7.06 5.97,-13.27 8.21,-18.17 2.05,-4.78 3.66,-8.51 4.85,-11.26 1.07,-2.55 1.57,-3.87 1.49,-3.91" style="fill:#17282f;fill-opacity:1;fill-rule:nonzero;stroke:none" id="path274"/>
      <path d="m 4588.69,3232.75 c -0.14,-0.1 -1.77,1.97 -4.69,5.99 -3.03,3.95 -6.93,10.17 -12.83,17.55 -11.26,15.12 -28.77,36.18 -52.97,59.6 -24.15,23.46 -55.66,48.66 -94.04,71.2 -38.3,22.58 -83.75,41.89 -133.65,53.92 -50.02,11.57 -99.33,14.62 -143.68,11.56 -44.42,-3 -83.88,-11.44 -115.97,-21.61 -32.13,-10.13 -57.2,-21.13 -74.03,-29.62 -8.58,-3.95 -14.84,-7.78 -19.32,-9.95 -4.41,-2.29 -6.79,-3.42 -6.87,-3.26 -0.1,0.15 2.09,1.58 6.34,4.17 4.33,2.47 10.45,6.59 18.92,10.84 16.62,9.08 41.62,20.67 73.85,31.32 32.17,10.7 71.91,19.61 116.74,22.9 44.77,3.35 94.63,0.42 145.22,-11.28 50.46,-12.16 96.35,-31.83 134.89,-54.86 38.62,-22.99 70.18,-48.72 94.17,-72.69 24.06,-23.94 41.23,-45.48 52.04,-61.04 5.67,-7.6 9.3,-14.02 12.06,-18.17 2.66,-4.21 3.98,-6.47 3.82,-6.57" style="fill:#17282f;fill-opacity:1;fill-rule:nonzero;stroke:none" id="path276"/>
      <path d="m 5094.66,2059.82 -46.45,-241.71 c 96.88,-134.81 105.7,-250.44 105.7,-250.44 l -520.6,-44.74 c 9.72,81.64 60.05,258.37 60.05,258.37 l -75.58,258.04 -151.46,197.21 150.3,135.46 c -2.88,-7.61 140.92,-90.84 140.92,-90.84 l 206.53,-1.76 c 0,0 12,-0.95 29.69,-5.89 l 100.9,261.56 c 0,0 78.05,-114.79 51.89,-255.64 -18.62,-100.28 -15.08,-123.74 -51.89,-219.62" style="fill:#35b977;fill-opacity:1;fill-rule:nonzero;stroke:none" id="path278"/>
      <path d="m 4717.06,2243.45 c 0.23,0.17 3.17,-2.88 7.62,-9.1 4.44,-6.21 10.29,-15.69 15.6,-28.37 5.19,-12.68 9.75,-28.71 10.44,-47.02 0.83,-18.25 -2.92,-38.68 -12.34,-57.68 -9.49,-18.94 -23.89,-34.31 -39.96,-43.39 -16.04,-9.19 -32.78,-12.47 -46.56,-12.52 -13.89,0.06 -24.87,3.11 -31.91,6.15 -3.51,1.57 -6.17,2.9 -7.85,4.03 -1.72,1.07 -2.57,1.7 -2.48,1.86 0.16,0.63 4.1,-1.76 11.49,-4.15 7.12,-2.3 17.44,-4.6 30.68,-4.21 13.23,0.51 29.14,4.04 44.21,12.98 15.08,8.82 28.65,23.5 37.72,41.58 9,18.17 12.75,37.65 12.21,55.21 -0.41,17.63 -4.45,33.27 -9.07,45.82 -9.63,25.13 -20.72,38.23 -19.8,38.81" style="fill:#17282f;fill-opacity:1;fill-rule:nonzero;stroke:none" id="path280"/>
      <path d="m 5076.79,2067.37 c -0.84,0.4 3.64,9.84 8.03,25.89 4.43,16.02 7.93,38.96 5.96,64.25 -2.07,25.28 -9.17,47.38 -16.09,62.49 -6.88,15.15 -12.8,23.75 -12.04,24.28 0.29,0.21 2,-1.78 4.85,-5.57 2.92,-3.74 6.57,-9.58 10.51,-17.11 7.92,-15.01 15.84,-37.65 17.97,-63.68 2.02,-26.03 -2.19,-49.64 -7.63,-65.71 -2.7,-8.06 -5.37,-14.42 -7.67,-18.57 -2.2,-4.2 -3.57,-6.42 -3.89,-6.27" style="fill:#17282f;fill-opacity:1;fill-rule:nonzero;stroke:none" id="path282"/>
      <path d="m 4889.9,1780.47 c -15.6,0 -31.5,2.09 -48.14,6.79 -8.71,1.91 -16.77,6.83 -21.71,14.27 -9.01,13.54 -6.66,33.46 5.22,44.54 7.98,7.44 18.34,10.33 29.25,10.33 11.37,0 23.34,-3.14 33.83,-7.51 20.18,-8.43 39.91,-20.71 61.69,-20.71 0.41,0 0.83,0 1.24,0.01 11.93,0.26 23.41,4.31 34.99,7.2 3.08,0.77 6.46,1.38 9.69,1.38 4.27,0 8.3,-1.06 11.09,-4.18 4.42,-4.96 3.23,-13.13 -0.94,-18.31 -4.17,-5.18 -10.5,-8.04 -16.68,-10.51 -34.63,-13.87 -66.39,-23.3 -99.53,-23.3" style="fill:#379466;fill-opacity:1;fill-rule:nonzero;stroke:none" id="path284"/>
      <path d="m 4833.49,2280.52 -75.95,0.65 c 0,0 -115.59,66.9 -137.43,86.23 1.57,2.24 3.19,4.44 4.85,6.6 l 103.68,-67.29 c -0.69,14.92 7.25,29.26 18.22,39.4 5.53,5.12 11.78,9.33 18.38,12.98 l 71.86,-70.16 -3.61,-8.41" style="fill:#9fa1a1;fill-opacity:1;fill-rule:nonzero;stroke:none" id="path286"/>
      <path d="m 4837.1,2288.93 -71.86,70.16 c 6.48,3.59 13.29,6.64 20.11,9.52 31.91,13.44 65.15,23.65 99.09,30.49 l -47.34,-110.17" style="fill:#160a0c;fill-opacity:1;fill-rule:nonzero;stroke:none" id="path288"/>
      <path d="m 4993.76,2273.52 c -17.69,4.94 -29.69,5.89 -29.69,5.89 l -130.58,1.11 3.61,8.41 47.34,110.17 c 33.8,6.82 68.28,10.29 102.77,10.29 0.08,0 0.17,0 0.25,0 18.62,0 38.1,-1.49 56.51,-5.71 l -50.21,-130.16" style="fill:#ba7562;fill-opacity:1;fill-rule:nonzero;stroke:none" id="path290"/>
      <path d="m 4838.1,2117.67 c -1.65,0 -3.31,0.07 -4.99,0.22 -35,3.13 -56.21,38.36 -84.47,59.81 -1.96,10.62 -5.03,20.14 -8.36,28.28 -5.31,12.68 -11.16,22.16 -15.6,28.37 -4.32,6.06 -7.22,9.1 -7.59,9.1 -0.01,0 -0.02,0 -0.03,0 -0.92,-0.58 10.17,-13.68 19.8,-38.81 2.53,-6.87 4.88,-14.66 6.56,-23.2 -5.79,3.89 -11.91,7.14 -18.53,9.37 -22.71,7.66 -48.03,2.16 -71.21,8.31 -33.81,8.97 -57.42,42.78 -60.8,77.59 -3.12,32.1 8.65,64.17 27.23,90.69 21.84,-19.33 137.43,-86.23 137.43,-86.23 l 75.95,-0.65 130.58,-1.11 c 0,0 12,-0.95 29.69,-5.89 l 50.21,130.16 c 26.85,-6.17 51.42,-18.16 67.72,-39.89 25.71,-34.3 21.71,-85.2 -2.98,-120.26 -7.68,-10.9 -17,-20.39 -27.47,-28.49 -1.07,2.32 -2.15,4.51 -3.23,6.56 -3.94,7.53 -7.59,13.37 -10.51,17.11 -2.72,3.61 -4.4,5.59 -4.8,5.59 -0.02,0 -0.04,-0.01 -0.05,-0.02 -0.76,-0.53 5.16,-9.13 12.04,-24.28 1.06,-2.33 2.14,-4.83 3.19,-7.48 -22.57,-16.45 -50.03,-26.78 -77.77,-31.35 -20.46,-3.37 -41.66,-4.03 -60.92,-11.73 -35.62,-14.24 -63.73,-51.77 -101.09,-51.77" style="fill:#379466;fill-opacity:1;fill-rule:nonzero;stroke:none" id="path292"/>
      <path d="m 4748.64,2177.7 c -1.71,1.3 -3.45,2.55 -5.22,3.74 -1.68,8.54 -4.03,16.33 -6.56,23.2 -9.63,25.13 -20.72,38.23 -19.8,38.81 0.01,0 0.02,0 0.03,0 0.37,0 3.27,-3.04 7.59,-9.1 4.44,-6.21 10.29,-15.69 15.6,-28.37 3.33,-8.14 6.4,-17.66 8.36,-28.28" style="fill:#0f191d;fill-opacity:1;fill-rule:nonzero;stroke:none" id="path294"/>
      <path d="m 5077.88,2212.52 c -1.05,2.65 -2.13,5.15 -3.19,7.48 -6.88,15.15 -12.8,23.75 -12.04,24.28 0.01,0.01 0.03,0.02 0.05,0.02 0.4,0 2.08,-1.98 4.8,-5.59 2.92,-3.74 6.57,-9.58 10.51,-17.11 1.08,-2.05 2.16,-4.24 3.23,-6.56 -1.11,-0.85 -2.23,-1.69 -3.36,-2.52" style="fill:#0f191d;fill-opacity:1;fill-rule:nonzero;stroke:none" id="path296"/>
      <path d="m 5220.29,2401.65 c -2.22,18.26 -15.17,34.81 -32.37,41.37 -20.09,7.65 -43.59,2.16 -63.24,10.89 -24.48,10.89 -34.83,39.63 -41,65.7 -6.18,26.08 -12.12,54.86 -33.18,71.41 -14.55,11.42 -33.88,14.81 -49.62,24.53 -23.3,14.38 -35.96,40.54 -51.88,62.81 -5.95,8.34 -13.18,16.48 -21.29,23.13 l -0.94,1.28 c -33.85,40.82 -124.15,46.16 -163.2,10.27 l 1.5,1.31 c -72.79,-5.46 -118.97,-123.04 -119.73,-197.55 -0.48,-46.36 14.49,-94.89 -3.06,-137.8 -10.22,-24.96 -30.61,-45.13 -38.42,-70.95 -10.62,-35.13 7.15,-76.63 39.89,-93.19 32.74,-16.56 76.7,-6.28 98.7,23.09 -1.15,-18.89 14.45,-35.54 32.24,-41.98 17.8,-6.42 37.35,-4.97 56.21,-3.42 40.41,3.31 86.99,10.28 107.71,45.11 13.93,-20.84 41.23,-29.38 66.22,-27.52 24.99,1.86 48.38,4.17 71.2,14.54 -1,1.29 -1.87,2.67 -2.63,4.11 3.71,1.42 7.34,3.06 10.77,5.16 19.19,11.79 31.08,37.18 22.14,57.84 7.25,-8.42 14.5,-16.84 21.76,-25.25 37.74,19.94 54.81,71.52 36.41,110.04 12.82,-5.24 24.56,-13.06 34.33,-22.86 15.12,10.49 23.71,29.67 21.48,47.93" style="fill:#17282f;fill-opacity:1;fill-rule:nonzero;stroke:none" id="path298"/>
      <path d="m 5211.08,2370.74 c -0.78,-0.21 3.36,9.54 -4.7,23.56 -3.98,6.72 -10.93,13.96 -21.06,18.66 -10.12,4.82 -22.89,7.12 -37.11,8.63 -14.15,1.68 -30.41,2.58 -46.45,9.81 -7.99,3.56 -15.44,9.33 -21.17,16.73 -5.77,7.39 -9.89,16.18 -12.86,25.36 -6.26,18.4 -7.61,38.69 -13.75,58.02 -3.07,9.65 -7.23,19.22 -13.54,27.3 -6.26,8.07 -14.95,14.25 -25.19,16.57 -10.22,2.54 -21.19,2.32 -32.04,4.47 -10.99,1.9 -21.25,7.77 -28.6,15.55 -15.17,15.67 -21.25,35.88 -27.88,53.37 -6.29,17.84 -15.11,33.41 -26.96,45.17 -11.6,11.89 -25.11,20.13 -38.26,25.21 -26.66,10.16 -50.84,7.4 -66.01,3.49 -15.45,-4.08 -23.13,-8.91 -23.37,-8.38 -0.08,0.14 1.78,1.39 5.54,3.4 3.76,1.99 9.51,4.59 17.28,6.93 15.29,4.57 40.05,8.07 67.85,-1.99 13.7,-5.04 27.85,-13.39 40.03,-25.62 12.43,-12 21.95,-28.53 28.38,-46.5 6.8,-17.69 12.92,-37.08 27.04,-51.5 6.93,-7.19 15.8,-12.27 25.96,-14.05 10.14,-2.03 21.14,-1.78 32.29,-4.5 11.29,-2.52 21.28,-9.62 28.02,-18.43 6.86,-8.83 11.16,-18.94 14.32,-28.95 6.3,-20.2 7.5,-40.33 13.45,-58.07 5.35,-17.8 16.1,-33.06 31.3,-39.67 14.95,-6.96 30.86,-8.17 45.06,-10.07 14.28,-1.75 27.46,-4.36 37.94,-9.66 10.58,-5.22 17.66,-13.08 21.56,-20.28 3.93,-7.3 4.65,-13.93 4.37,-18.2 -0.38,-4.31 -1.44,-6.36 -1.44,-6.36" style="fill:#33535f;fill-opacity:1;fill-rule:nonzero;stroke:none" id="path300"/>
      <path d="m 5083.29,2226.63 c -0.12,0.3 2.11,0.86 5.54,3.25 3.37,2.34 7.72,7.1 10.11,14.62 2.36,7.37 2.91,17.7 -1.76,27.75 -4.8,10.09 -14.3,19.24 -26.43,26.63 -12.04,7.64 -26.86,13.36 -41.48,22.61 -7.26,4.64 -14.47,10.32 -20.24,17.78 -5.74,7.45 -9.83,16.36 -12.41,25.77 -5.36,18.87 -5.1,39.38 -7.66,59.65 -2.56,19.94 -8.76,41.95 -26.52,54.17 -17.23,12.21 -40.42,15.87 -55.89,32 -15.21,15.83 -20.99,36.61 -24.3,55.38 -3.18,18.99 -4.45,37.08 -8.73,53.28 -4.15,16.19 -11.68,30.1 -20.06,41.57 -17.25,22.87 -37.9,35.1 -52.42,41.46 -14.81,6.17 -23.77,7.39 -23.65,7.96 0.03,0.18 2.25,-0.12 6.46,-0.86 4.2,-0.78 10.32,-2.39 17.96,-5.22 14.99,-5.89 36.44,-17.86 54.59,-41.12 8.81,-11.64 16.8,-25.95 21.29,-42.68 4.59,-16.66 6.02,-34.95 9.28,-53.56 3.33,-18.35 9.17,-38.18 23.22,-52.63 13.92,-14.73 36.41,-18.3 55.28,-31.34 9.47,-6.6 16.51,-16.22 20.72,-26.44 4.31,-10.22 6.5,-20.9 7.82,-31.31 2.54,-20.89 2.2,-40.95 7.24,-59.03 2.4,-9 6.17,-17.32 11.42,-24.27 5.25,-6.94 11.98,-12.38 18.94,-16.94 14,-9.09 28.84,-15.08 41.11,-23.11 12.33,-7.79 22.24,-17.63 27.1,-28.52 4.8,-11.06 3.82,-21.92 1.03,-29.63 -2.82,-7.87 -7.73,-12.69 -11.45,-14.85 -3.76,-2.2 -6.11,-2.37 -6.11,-2.37" style="fill:#33535f;fill-opacity:1;fill-rule:nonzero;stroke:none" id="path302"/>
      <path d="m 4841.78,2204.7 c -0.71,0.25 6.25,5.76 6.59,19.54 0.2,6.7 -1.34,15.01 -5.15,23.81 -3.78,8.85 -9.92,18.15 -15.18,29.52 -5.45,11.18 -8.14,26.01 -4.23,40.51 3.52,14.55 11.27,28.33 18.41,42.81 7.21,14.41 13.54,30.25 13.04,47.59 -0.13,17.28 -6.27,34.68 -17.42,49.33 -10.99,14.83 -24.65,27.33 -35.38,41.86 -5.36,7.25 -9.88,15.09 -12.94,23.36 -3.04,8.27 -4.51,16.81 -5.1,25.09 -1.08,16.62 1.25,32.22 3.62,46.5 2.42,14.3 4.84,27.51 5.71,39.67 2.2,24.34 -3.53,43.99 -10.64,55.49 -7.05,11.69 -14.01,15.69 -13.54,16.18 0.07,0.1 1.79,-0.81 4.63,-3.11 2.84,-2.29 6.79,-6.13 10.62,-11.99 7.89,-11.5 14.39,-31.85 12.6,-56.81 -0.64,-12.44 -2.9,-25.85 -5.11,-40.11 -2.18,-14.24 -4.27,-29.54 -3.1,-45.47 0.62,-7.94 2.08,-16 4.98,-23.73 2.91,-7.7 7.18,-15.06 12.37,-22.03 10.37,-13.99 24.04,-26.43 35.47,-41.81 11.66,-15.26 18.32,-34.09 18.34,-52.35 0.47,-18.45 -6.46,-35.39 -13.86,-49.8 -7.35,-14.58 -15.03,-28.01 -18.5,-41.7 -3.82,-13.68 -1.61,-27.02 3.39,-37.99 4.87,-11.09 10.85,-20.63 14.52,-29.9 3.7,-9.26 4.99,-17.98 4.48,-25.02 -0.48,-7.07 -2.74,-12.3 -4.84,-15.31 -2.09,-3.08 -3.78,-4.13 -3.78,-4.13" style="fill:#33535f;fill-opacity:1;fill-rule:nonzero;stroke:none" id="path304"/>
      <path d="m 4666.6,2212.9 c 0,0 -1.56,1.32 -2.92,4.84 -1.37,3.47 -2,9.35 0.22,16.18 2.01,6.89 7.37,14.39 15.21,20.62 7.62,6.48 17.62,12.03 25.6,21.1 8.03,8.99 14.27,21.27 16.44,35.29 2.51,14.13 -1.03,29.16 -7.11,44.31 -5.69,14.99 -13.17,32.2 -10.52,51.02 2.2,18.54 11.12,35.51 18.96,52.55 8.02,17 14.44,34.38 13.43,51.82 -0.78,17.43 -6.44,33.81 -10.8,49.66 -9.59,31.72 -10.04,63.04 -2.42,87.18 7.38,24.35 21.63,40.41 32.6,48.92 5.54,4.34 10.33,7 13.65,8.6 3.34,1.54 5.17,2.16 5.24,2.02 0.27,-0.5 -7.09,-3.28 -17.6,-12.18 -10.34,-8.79 -23.68,-24.74 -30.37,-48.4 -6.89,-23.53 -6.15,-53.72 3.52,-84.83 4.42,-15.68 10.35,-32.29 11.28,-50.75 1.16,-18.65 -5.75,-37.17 -13.8,-54.22 -7.95,-17.19 -16.55,-33.72 -18.63,-50.97 -2.54,-17.29 4.26,-33.41 9.96,-48.74 2.84,-7.73 5.52,-15.49 6.83,-23.41 1.42,-7.93 1.24,-15.85 0.05,-23.26 -2.51,-14.87 -9.32,-27.74 -17.99,-37.08 -8.73,-9.5 -18.96,-14.81 -26.49,-20.9 -7.79,-5.86 -12.89,-12.57 -15.13,-19 -2.36,-6.35 -2.12,-11.82 -1.13,-15.21 0.97,-3.43 2.15,-5.02 1.92,-5.16" style="fill:#33535f;fill-opacity:1;fill-rule:nonzero;stroke:none" id="path306"/>
      <path d="m 536.277,276.41 c -0.093,0.051 0.532,1.551 1.832,4.422 1.465,3.117 3.43,7.297 5.93,12.629 5.039,11.18 11.586,28.09 17.422,50.598 11.523,44.992 15.547,113.742 -1.484,195.402 -7.914,40.879 -20.668,84.738 -36.243,131.238 -15.339,46.582 -33.152,96 -47.707,149.43 -14.39,53.293 -25.75,111.152 -23.554,171.793 2.207,60.768 20.195,121.428 39.984,181.808 19.738,60.48 40.16,119.59 46.277,179.04 6.926,59.36 -5.785,117.62 -32.82,165.36 -26.187,48.25 -59.141,89.52 -83.801,132.26 -25.043,42.61 -40.707,86.42 -50.359,127.15 -18.715,82.15 -12.16,151.36 -3.195,196.98 9.718,45.86 20.554,69.57 20.554,69.57 0.102,-0.04 -0.308,-1.6 -1.218,-4.63 -1.024,-3.29 -2.407,-7.7 -4.161,-13.33 -3.621,-11.72 -8.32,-29.22 -12.777,-52.07 -8.187,-45.52 -13.98,-114.27 5.113,-195.51 9.844,-40.29 25.578,-83.51 50.532,-125.53 24.601,-42.23 57.695,-83.32 84.398,-132.14 27.609,-48.27 40.887,-108.44 33.855,-168.72 -6.16,-60.46 -26.734,-119.97 -46.433,-180.37 -19.785,-60.33 -37.563,-120.36 -39.809,-180.099 -2.246,-59.722 8.832,-117.011 22.992,-170.062 14.313,-53.168 31.918,-102.59 47.075,-149.309 15.379,-46.64 27.976,-90.851 35.648,-132.019 16.586,-82.262 11.86,-151.699 -0.5,-196.852 -6.246,-22.59 -13.211,-39.48 -18.64,-50.508 -2.747,-5.242 -4.899,-9.351 -6.512,-12.41 -1.492,-2.781 -2.305,-4.172 -2.399,-4.121" style="fill:#17282f;fill-opacity:1;fill-rule:nonzero;stroke:none" id="path308"/>
      <path d="m 455.605,1608.22 c 0,0 -50.066,160.12 39.75,253.87 3.157,3.29 8.704,1.74 9.52,-2.76 4.793,-26.43 10.789,-106.97 -49.27,-251.11" style="fill:#35b977;fill-opacity:1;fill-rule:nonzero;stroke:none" id="path310"/>
      <path d="m 485.605,1808.74 c 0.852,-0.17 -0.582,-11.44 -3.375,-29.54 -3.289,-20.35 -7.152,-44.23 -11.417,-70.63 -4.192,-26.38 -7.985,-50.27 -11.211,-70.61 -2.747,-18.09 -4.387,-29.3 -5.305,-29.22 -0.809,0.06 -0.727,11.45 0.898,29.75 1.657,18.3 4.883,43.47 9.418,71.1 4.52,27.62 9.344,52.5 13.258,70.42 3.91,17.92 6.887,28.89 7.734,28.73" style="fill:#17282f;fill-opacity:1;fill-rule:nonzero;stroke:none" id="path312"/>
      <path d="m 514.426,1230.59 c 0,0 30.621,164.95 153.851,205.8 4.325,1.44 8.504,-2.53 7.129,-6.88 -8.125,-25.62 -40.492,-99.6 -160.98,-198.92" style="fill:#35b977;fill-opacity:1;fill-rule:nonzero;stroke:none" id="path314"/>
      <path d="m 634.707,1393.8 c 0.676,-0.55 -5.859,-9.84 -16.789,-24.53 -12.43,-16.45 -27.016,-35.76 -43.125,-57.08 -16.047,-21.38 -30.563,-40.72 -42.934,-57.18 -10.882,-14.71 -17.578,-23.85 -18.351,-23.36 -0.692,0.44 4.711,10.47 14.711,25.89 10.019,15.4 24.636,36.13 41.574,58.43 16.906,22.31 32.805,42.04 44.645,56.05 11.835,14.01 19.601,22.32 20.269,21.78" style="fill:#17282f;fill-opacity:1;fill-rule:nonzero;stroke:none" id="path316"/>
      <path d="m 481.125,816.809 c 0,0 -18.605,166.711 87.445,241.611 3.727,2.62 8.875,0.04 8.825,-4.52 -0.34,-26.87 -9.821,-107.08 -96.27,-237.091" style="fill:#35b977;fill-opacity:1;fill-rule:nonzero;stroke:none" id="path318"/>
      <path d="m 548.824,1007.91 c 0.801,-0.33 -2.754,-11.109 -8.945,-28.359 C 532.766,960.199 524.414,937.5 515.191,912.41 506.047,887.301 497.77,864.582 490.719,845.219 484.574,828 480.82,817.301 479.938,817.551 c -0.786,0.211 1.468,11.379 6.558,29.039 5.117,17.648 13.086,41.742 22.813,67.992 9.699,26.258 19.179,49.75 26.445,66.598 7.254,16.851 12.269,27.05 13.07,26.73" style="fill:#17282f;fill-opacity:1;fill-rule:nonzero;stroke:none" id="path320"/>
      <path d="m 573.949,400.59 c 0,0 -12.617,167.289 96.047,238.332 3.817,2.488 8.871,-0.281 8.652,-4.832 -1.3,-26.84 -13.64,-106.649 -104.699,-233.5" style="fill:#35b977;fill-opacity:1;fill-rule:nonzero;stroke:none" id="path322"/>
      <path d="m 648.453,589.148 c 0.789,-0.347 -3.148,-11.007 -9.957,-28.019 -7.797,-19.07 -16.957,-41.469 -27.07,-66.207 -10.043,-24.774 -19.129,-47.184 -26.871,-66.274 -6.75,-16.988 -10.883,-27.546 -11.762,-27.269 -0.777,0.25 1.883,11.32 7.598,28.793 5.742,17.449 14.566,41.226 25.23,67.129 10.637,25.89 20.945,49.039 28.813,65.609 7.851,16.578 13.226,26.602 14.019,26.238" style="fill:#17282f;fill-opacity:1;fill-rule:nonzero;stroke:none" id="path324"/>
      <path d="m 383.648,1748.9 c 0,0 -148.703,77.66 -151.617,207.46 -0.101,4.56 4.922,7.38 8.668,4.79 22.106,-15.28 83.344,-67.93 142.949,-212.25" style="fill:#35b977;fill-opacity:1;fill-rule:nonzero;stroke:none" id="path326"/>
      <path d="m 262.906,1911.77 c 0.723,0.48 7.68,-8.49 18.532,-23.26 12.074,-16.7 26.253,-36.3 41.917,-57.96 15.723,-21.61 29.95,-41.17 42.071,-57.82 10.859,-14.71 17.637,-23.8 16.937,-24.39 -0.613,-0.54 -8.621,7.57 -20.429,21.65 -11.782,14.1 -27.321,34.16 -43.668,56.88 -16.36,22.72 -30.571,43.7 -40.489,59.13 -9.922,15.42 -15.589,25.29 -14.871,25.77" style="fill:#17282f;fill-opacity:1;fill-rule:nonzero;stroke:none" id="path328"/>
      <path d="m 543.324,1405.04 c 0,0 -153.144,68.48 -163.933,197.87 -0.383,4.54 4.461,7.66 8.359,5.3 22.992,-13.9 87.32,-62.73 155.574,-203.17" style="fill:#35b977;fill-opacity:1;fill-rule:nonzero;stroke:none" id="path330"/>
      <path d="m 412.914,1560.27 c 0.691,0.53 8.184,-8 19.91,-22.08 13.071,-15.94 28.41,-34.65 45.36,-55.31 17.007,-20.62 32.398,-39.27 45.504,-55.16 11.738,-14.03 19.05,-22.68 18.386,-23.33 -0.578,-0.56 -9.062,7.04 -21.703,20.38 -12.617,13.35 -29.344,32.44 -47.047,54.13 -17.707,21.67 -33.164,41.76 -43.996,56.56 -10.848,14.79 -17.101,24.29 -16.414,24.81" style="fill:#17282f;fill-opacity:1;fill-rule:nonzero;stroke:none" id="path332"/>
      <path d="m 455.211,1021.48 c 0,0 -105.152,130.73 -55.828,250.82 1.726,4.21 7.465,4.8 9.859,0.92 14.133,-22.86 49.156,-95.62 45.969,-251.74" style="fill:#35b977;fill-opacity:1;fill-rule:nonzero;stroke:none" id="path334"/>
      <path d="m 409.809,1219.08 c 0.855,0.15 3.64,-10.86 7.668,-28.73 4.375,-20.15 9.511,-43.79 15.191,-69.9 5.75,-26.11 10.949,-49.72 15.383,-69.84 4.062,-17.83 6.633,-28.86 5.754,-29.14 -0.778,-0.23 -4.867,10.4 -10.043,28.04 -5.153,17.63 -11.356,42.24 -17.227,69.61 -5.898,27.36 -10.508,52.27 -13.418,70.39 -2.91,18.12 -4.156,29.41 -3.308,29.57" style="fill:#17282f;fill-opacity:1;fill-rule:nonzero;stroke:none" id="path336"/>
      <path d="m 559.363,570.121 c 0,0 -151.968,71.039 -160.586,200.59 -0.304,4.539 4.586,7.59 8.446,5.168 22.754,-14.297 86.254,-64.199 152.14,-205.758" style="fill:#35b977;fill-opacity:1;fill-rule:nonzero;stroke:none" id="path338"/>
      <path d="m 431.582,727.531 c 0.699,0.508 8.047,-8.152 19.531,-22.422 12.797,-16.16 27.828,-35.121 44.43,-56.078 16.652,-20.89 31.73,-39.793 44.566,-55.91 11.5,-14.223 18.668,-22.992 17.996,-23.621 -0.589,-0.559 -8.945,7.191 -21.363,20.73 -12.387,13.571 -28.793,32.93 -46.129,54.918 -17.34,21.973 -32.453,42.301 -43.039,57.282 -10.594,14.98 -16.691,24.582 -15.992,25.101" style="fill:#17282f;fill-opacity:1;fill-rule:nonzero;stroke:none" id="path340"/>
      <path d="m 862.07,1229.7 c 0.145,-0.01 0.207,-1.27 0.192,-3.7 -0.074,-2.93 -0.16,-6.45 -0.266,-10.73 -0.445,-10.08 -1.047,-23.69 -1.801,-40.67 -1.957,-35.76 -4.691,-85.63 -7.957,-145.26 l -0.008,-0.15 -0.031,-0.21 C 841.348,968.281 810.43,900.988 768.902,835.672 738.441,787.551 706.512,743.801 678.969,703.109 651.25,662.539 627.852,624.961 611.543,591.648 595.129,558.398 585.582,529.82 580,509.859 c -2.672,-10.019 -4.68,-17.828 -5.832,-23.179 -1.25,-5.328 -2.016,-8.121 -2.227,-8.078 -0.211,0.039 0.129,2.898 0.985,8.32 0.758,5.437 2.387,13.379 4.711,23.558 4.883,20.258 13.867,49.321 29.914,83.098 15.929,33.844 39.109,71.934 66.625,112.774 27.351,40.968 59.117,84.789 89.418,132.66 41.308,65.008 72.062,131.269 83.316,190.998 l -0.047,-0.34 c 4.192,59.59 7.692,109.4 10.203,145.12 1.372,16.95 2.469,30.53 3.282,40.59 0.429,4.26 0.781,7.76 1.074,10.67 0.289,2.42 0.508,3.66 0.648,3.65" style="fill:#17282f;fill-opacity:1;fill-rule:nonzero;stroke:none" id="path342"/>
      <path d="m 771.582,848.16 c 0,0 64.359,154.92 -16.594,256.42 -2.847,3.56 -8.515,2.51 -9.734,-1.89 -7.168,-25.89 -20.43,-105.549 26.328,-254.53" style="fill:#35b977;fill-opacity:1;fill-rule:nonzero;stroke:none" id="path344"/>
      <path d="m 759.863,1050.57 c 0.86,0.08 2.828,-11.12 5.098,-29.32 2.281,-18.2 4.832,-43.41 6.828,-71.328 2.016,-27.934 2.949,-53.281 2.945,-71.66 -0.039,-18.371 -0.988,-29.731 -1.804,-29.723 -0.918,0.012 -1.535,11.332 -2.637,29.59 -1.371,20.551 -2.984,44.68 -4.766,71.34 -1.859,26.672 -3.543,50.811 -4.984,71.371 -1.141,18.29 -1.543,29.63 -0.68,29.73" style="fill:#17282f;fill-opacity:1;fill-rule:nonzero;stroke:none" id="path346"/>
      <path d="m 771.582,848.16 c -26.484,84.379 -33.711,146.531 -33.699,189.26 0.012,32.71 4.262,54.05 7.371,65.27 0.719,2.6 2.992,4.03 5.32,4.03 1.614,0 3.246,-0.68 4.414,-2.14 31.227,-39.16 40.832,-86.26 40.852,-129.35 0.019,-55.32 -15.758,-104.031 -21.875,-120.832 0.426,5.102 0.746,13.332 0.769,23.864 0.004,18.379 -0.929,43.726 -2.945,71.66 -1.996,27.918 -4.547,53.128 -6.828,71.328 -2.262,18.13 -4.223,29.32 -5.086,29.32 -0.004,0 -0.008,0 -0.012,0 -0.863,-0.1 -0.461,-11.44 0.68,-29.73 1.441,-20.56 3.125,-44.699 4.984,-71.371 1.782,-26.66 3.395,-50.789 4.766,-71.34 0.859,-14.27 1.426,-24.301 2.07,-28 -0.5,-1.289 -0.781,-1.969 -0.781,-1.969" style="fill:#379466;fill-opacity:1;fill-rule:nonzero;stroke:none" id="path348"/>
      <path d="m 772.363,850.129 v 0 c -0.644,3.699 -1.211,13.73 -2.07,28 -1.371,20.551 -2.984,44.68 -4.766,71.34 -1.859,26.672 -3.543,50.811 -4.984,71.371 -1.141,18.29 -1.543,29.63 -0.68,29.73 0.004,0 0.008,0 0.012,0 0.863,0 2.824,-11.19 5.086,-29.32 2.281,-18.2 4.832,-43.41 6.828,-71.328 2.016,-27.934 2.949,-53.281 2.945,-71.66 -0.023,-10.532 -0.343,-18.762 -0.769,-23.864 v 0 c -0.656,-1.796 -1.199,-3.238 -1.602,-4.269" style="fill:#0f191d;fill-opacity:1;fill-rule:nonzero;stroke:none" id="path350"/>
      <path d="m 572.234,474.82 c 0,0 51.582,159.629 -37.339,254.231 -3.122,3.32 -8.688,1.82 -9.543,-2.66 C 520.305,700 513.547,619.52 572.234,474.82" style="fill:#35b977;fill-opacity:1;fill-rule:nonzero;stroke:none" id="path352"/>
      <path d="m 544.137,675.609 c 0.855,0.161 3.718,-10.839 7.465,-28.789 3.746,-17.968 8.332,-42.89 12.582,-70.55 4.281,-27.668 7.261,-52.872 8.746,-71.18 1.453,-18.32 1.425,-29.711 0.617,-29.77 -0.918,-0.058 -2.457,11.16 -5.027,29.282 -3.036,20.367 -6.602,44.289 -10.54,70.718 -4.015,26.43 -7.652,50.34 -10.75,70.719 -2.621,18.141 -3.945,29.41 -3.093,29.57" style="fill:#17282f;fill-opacity:1;fill-rule:nonzero;stroke:none" id="path354"/>
      <path d="M 572.234,474.82 C 531.195,576 522.16,645.781 522.16,687.621 c 0,18 1.676,30.84 3.192,38.77 0.539,2.82 2.945,4.461 5.429,4.461 1.465,0 2.957,-0.571 4.114,-1.801 41.16,-43.789 52.214,-101.512 52.218,-150.891 0,-44.59 -9.015,-82.379 -13.011,-96.93 0.007,5.11 -0.34,13.34 -1.172,23.86 -1.485,18.308 -4.465,43.512 -8.746,71.18 -4.25,27.66 -8.836,52.582 -12.582,70.55 -3.719,17.828 -6.571,28.789 -7.446,28.789 -0.008,0 -0.015,0 -0.019,0 -0.852,-0.16 0.472,-11.429 3.093,-29.57 3.098,-20.379 6.735,-44.289 10.75,-70.719 3.938,-26.429 7.504,-50.351 10.54,-70.718 2.011,-14.172 3.386,-24.114 4.332,-27.75 -0.395,-1.332 -0.618,-2.032 -0.618,-2.032" style="fill:#379466;fill-opacity:1;fill-rule:nonzero;stroke:none" id="path356"/>
      <path d="m 572.852,476.852 v 0 c -0.946,3.636 -2.321,13.578 -4.332,27.75 -3.036,20.367 -6.602,44.289 -10.54,70.718 -4.015,26.43 -7.652,50.34 -10.75,70.719 -2.621,18.141 -3.945,29.41 -3.093,29.57 0.004,0 0.011,0 0.019,0 0.875,0 3.727,-10.961 7.446,-28.789 3.746,-17.968 8.332,-42.89 12.582,-70.55 4.281,-27.668 7.261,-52.872 8.746,-71.18 0.832,-10.52 1.179,-18.75 1.172,-23.86 v 0 c -0.508,-1.851 -0.934,-3.32 -1.25,-4.378" style="fill:#0f191d;fill-opacity:1;fill-rule:nonzero;stroke:none" id="path358"/>
      <path d="m 853.547,1037.49 c 0,0 137.433,96.21 123.562,225.29 -0.48,4.54 -5.828,6.69 -9.214,3.64 -19.946,-18 -73.875,-78.12 -114.348,-228.93" style="fill:#35b977;fill-opacity:1;fill-rule:nonzero;stroke:none" id="path360"/>
      <path d="m 853.547,1037.49 c 40.473,150.81 94.402,210.93 114.348,228.93 1.089,0.98 2.375,1.43 3.64,1.43 2.676,0 5.246,-1.99 5.574,-5.07 0.664,-6.18 0.985,-12.28 0.985,-18.3 0.051,-119.77 -124.547,-206.99 -124.547,-206.99" style="fill:#379466;fill-opacity:1;fill-rule:nonzero;stroke:none" id="path362"/>
      <path d="m 952.254,1214.59 c 0.773,-0.39 -3.57,-10.9 -11.422,-27.47 -7.844,-16.58 -19.219,-39.23 -32.516,-63.86 -13.277,-24.66 -26.093,-46.55 -35.957,-62.05 -9.89,-15.49 -16.781,-24.56 -17.461,-24.11 -0.769,0.5 4.778,10.38 13.649,26.37 9.867,18.08 21.449,39.31 34.246,62.77 12.738,23.5 24.27,44.77 34.09,62.9 8.844,16.03 14.594,25.83 15.371,25.45" style="fill:#17282f;fill-opacity:1;fill-rule:nonzero;stroke:none" id="path364"/>
      <path d="m 627.648,633.082 c 0,0 165.754,25.84 210.161,147.848 1.558,4.281 -2.289,8.57 -6.676,7.32 -25.836,-7.379 -100.731,-37.602 -203.485,-155.168" style="fill:#35b977;fill-opacity:1;fill-rule:nonzero;stroke:none" id="path366"/>
      <path d="m 627.648,633.082 c 102.754,117.566 177.649,147.789 203.485,155.168 0.527,0.148 1.047,0.219 1.551,0.219 3.019,0 5.457,-2.539 5.476,-5.528 0.004,-0.66 -0.105,-1.339 -0.351,-2.011 -38.864,-106.782 -170.672,-139.899 -202.973,-146.5 -3.281,-0.668 -5.531,-1.071 -6.559,-1.239 -0.414,-0.07 -0.629,-0.109 -0.629,-0.109" style="fill:#379466;fill-opacity:1;fill-rule:nonzero;stroke:none" id="path368"/>
      <path d="m 794.258,748.602 c 0.527,-0.68 -8,-8.204 -22.352,-19.633 -14.343,-11.43 -34.531,-26.758 -57.316,-43.008 -22.777,-16.281 -43.926,-30.301 -59.606,-39.871 -15.703,-9.551 -25.886,-14.66 -26.3,-13.949 -0.469,0.789 8.863,7.211 23.871,17.66 16.82,11.89 36.574,25.84 58.394,41.269 21.785,15.489 41.508,29.512 58.301,41.461 15.012,10.5 24.48,16.758 25.008,16.071" style="fill:#17282f;fill-opacity:1;fill-rule:nonzero;stroke:none" id="path370"/>
      <path d="M 469.523,328.039 421.168,2.60156 H 722.492 L 683.43,328.039 H 469.523" style="fill:#33535f;fill-opacity:1;fill-rule:nonzero;stroke:none" id="path372"/>
      <path d="m 695.473,227.199 c 0,-1.738 -54.407,-3.148 -121.504,-3.148 -67.117,0 -121.512,1.41 -121.512,3.148 0,1.723 54.395,3.133 121.512,3.133 67.097,0 121.504,-1.41 121.504,-3.133" style="fill:#17282f;fill-opacity:1;fill-rule:nonzero;stroke:none" id="path374"/>
      <path d="m 701.449,201.301 c 0,-1.731 -56.191,-3.141 -125.484,-3.141 -69.32,0 -125.496,1.41 -125.496,3.141 0,1.738 56.176,3.129 125.496,3.129 69.293,0 125.484,-1.391 125.484,-3.129" style="fill:#17282f;fill-opacity:1;fill-rule:nonzero;stroke:none" id="path376"/>
      <path d="m 6066.7,438.191 c -21.49,-5.25 -39.38,-21.23 -50.28,-40.492 -10.9,-19.238 -15.4,-41.551 -16.66,-63.648 -2.44,-42.742 14.15,-89.153 34.06,-127.051 40.58,24.781 57.92,77.141 65.04,104.25 11.26,42.859 5.58,127.16 -32.16,126.941" style="fill:#35b977;fill-opacity:1;fill-rule:nonzero;stroke:none" id="path378"/>
      <path d="m 5980.92,144.828 c 9.72,22.742 4.31,50.422 -11.1,69.742 -15.42,19.321 -39.66,30.539 -64.27,32.84 -11.38,1.059 -24.08,-0.129 -32.1,-8.281 -7.49,-7.617 -8.89,-19.797 -5.61,-29.957 3.28,-10.184 10.53,-18.602 18.5,-25.723 27.3,-24.437 58.21,-43.07 94.58,-38.621" style="fill:#35b977;fill-opacity:1;fill-rule:nonzero;stroke:none" id="path380"/>
      <path d="m 6004.18,8.51172 c 0.22,0.00781 0.26,3.16018 0.22,8.82028 -0.07,6.25 -0.17,14.3164 -0.29,24.0196 -0.56,20.1172 -0.8,48.8476 -11.29,78.5004 -10.29,29.539 -27.77,53 -43.66,65.867 -7.87,6.551 -14.99,10.871 -20.12,13.363 -2.51,1.359 -4.63,2.066 -5.99,2.668 -1.4,0.551 -2.15,0.789 -2.19,0.691 -0.37,-0.64 11.73,-5.019 26.87,-18.382 15.23,-13.059 32.04,-36.188 42.17,-65.231 10.29,-29.0467 10.9,-57.4491 12.02,-77.5467 0.47,-10.1329 0.85,-18.3321 1.27,-24 0.41,-5.6602 0.79,-8.7813 0.99,-8.76958" style="fill:#17282f;fill-opacity:1;fill-rule:nonzero;stroke:none" id="path382"/>
      <path d="m 6065.35,373.621 c -0.11,0.02 -0.47,-1.25 -1.07,-3.691 -0.65,-2.758 -1.48,-6.309 -2.49,-10.692 -2.11,-9.308 -4.99,-22.808 -8.41,-39.508 -6.85,-33.41 -15.65,-79.699 -24.23,-131.031 -8.55,-51.347 -15.25,-97.9998 -19.63,-131.8201 -2.19,-16.9101 -3.85,-30.6094 -4.87,-40.0898 -0.46,-4.4883 -0.83,-8.10941 -1.11,-10.92972 -0.23,-2.5 -0.29,-3.82032 -0.18,-3.82813 0.11,-0.01953 0.37,1.27734 0.79,3.75 0.44,2.80078 1.01,6.41015 1.7,10.84765 1.44,9.8203 3.42,23.3711 5.85,39.9531 4.92,33.7266 11.96,80.289 20.52,131.609 8.56,51.289 17.02,97.618 23.31,131.11 3.08,16.48 5.61,29.937 7.44,39.687 0.79,4.442 1.43,8.024 1.92,10.813 0.4,2.48 0.57,3.801 0.46,3.82" style="fill:#17282f;fill-opacity:1;fill-rule:nonzero;stroke:none" id="path384"/>
      <path d="m 6037.64,108.852 c 16.73,49.347 58.77,89.359 108.89,103.609 12.77,3.629 28.81,4.687 37.01,-5.75 8.21,-10.449 3.33,-25.859 -3.52,-37.262 -28.48,-47.41 -87.73,-74.1795 -142.14,-64.199" style="fill:#35b977;fill-opacity:1;fill-rule:nonzero;stroke:none" id="path386"/>
      <path d="m 6134,173.672 c -0.05,0.207 -2.92,-0.512 -8.05,-1.981 -2.57,-0.73 -5.72,-1.613 -9.24,-3.062 -3.51,-1.438 -7.68,-2.707 -11.93,-4.918 -4.32,-2.063 -9.12,-4.211 -13.93,-7.172 -4.97,-2.66 -9.94,-6.059 -15.17,-9.668 -10.22,-7.48 -20.82,-16.68 -30.42,-27.769 -9.49,-11.18 -17.02,-23.0434 -22.78,-34.3325 -2.71,-5.7382 -5.31,-11.1797 -7.11,-16.5312 -2.13,-5.2266 -3.46,-10.3164 -4.73,-14.9297 -1.46,-4.5703 -1.98,-8.9102 -2.77,-12.6172 -0.81,-3.7109 -1.12,-6.9726 -1.36,-9.6406 -0.51,-5.3203 -0.7,-8.2617 -0.48,-8.2813 0.69,-0.0898 1.48,11.7618 6.71,29.9414 1.41,4.5196 2.84,9.5 5.03,14.6094 1.87,5.2383 4.53,10.5508 7.25,16.1485 5.82,11.0429 13.27,22.6212 22.6,33.6132 9.43,10.898 19.77,20 29.75,27.477 5.09,3.613 9.94,7.043 14.78,9.761 4.69,3.008 9.36,5.25 13.56,7.418 17.03,8.274 28.5,11.293 28.29,11.934" style="fill:#17282f;fill-opacity:1;fill-rule:nonzero;stroke:none" id="path388"/>
    </g>
  </g>
</svg>